<svg width="230" height="230" viewBox="0 0 230 230" xmlns="http://www.w3.org/2000/svg">
<rect x="0" y="0" width="230" height="230" fill="#FFFFFF"/>
<rect x="10" y="10" width="10" height="10" fill="#395886"/>
<rect x="20" y="10" width="10" height="10" fill="#395886"/>
<rect x="30" y="10" width="10" height="10" fill="#395886"/>
<rect x="40" y="10" width="10" height="10" fill="#395886"/>
<rect x="50" y="10" width="10" height="10" fill="#395886"/>
<rect x="60" y="10" width="10" height="10" fill="#395886"/>
<rect x="70" y="10" width="10" height="10" fill="#395886"/>
<rect x="80" y="10" width="10" height="10" fill="#395886"/>
<rect x="100" y="10" width="10" height="10" fill="#395886"/>
<rect x="110" y="10" width="10" height="10" fill="#395886"/>
<rect x="130" y="10" width="10" height="10" fill="#395886"/>
<rect x="140" y="10" width="10" height="10" fill="#395886"/>
<rect x="150" y="10" width="10" height="10" fill="#395886"/>
<rect x="160" y="10" width="10" height="10" fill="#395886"/>
<rect x="170" y="10" width="10" height="10" fill="#395886"/>
<rect x="180" y="10" width="10" height="10" fill="#395886"/>
<rect x="190" y="10" width="10" height="10" fill="#395886"/>
<rect x="200" y="10" width="10" height="10" fill="#395886"/>
<rect x="210" y="10" width="10" height="10" fill="#395886"/>
<rect x="10" y="20" width="10" height="10" fill="#395886"/>
<rect x="70" y="20" width="10" height="10" fill="#395886"/>
<rect x="140" y="20" width="10" height="10" fill="#395886"/>
<rect x="150" y="20" width="10" height="10" fill="#395886"/>
<rect x="210" y="20" width="10" height="10" fill="#395886"/>
<rect x="10" y="30" width="10" height="10" fill="#395886"/>
<rect x="30" y="30" width="10" height="10" fill="#395886"/>
<rect x="40" y="30" width="10" height="10" fill="#395886"/>
<rect x="50" y="30" width="10" height="10" fill="#395886"/>
<rect x="70" y="30" width="10" height="10" fill="#395886"/>
<rect x="80" y="30" width="10" height="10" fill="#395886"/>
<rect x="90" y="30" width="10" height="10" fill="#395886"/>
<rect x="100" y="30" width="10" height="10" fill="#395886"/>
<rect x="110" y="30" width="10" height="10" fill="#395886"/>
<rect x="150" y="30" width="10" height="10" fill="#395886"/>
<rect x="170" y="30" width="10" height="10" fill="#395886"/>
<rect x="180" y="30" width="10" height="10" fill="#395886"/>
<rect x="190" y="30" width="10" height="10" fill="#395886"/>
<rect x="210" y="30" width="10" height="10" fill="#395886"/>
<rect x="10" y="40" width="10" height="10" fill="#395886"/>
<rect x="30" y="40" width="10" height="10" fill="#395886"/>
<rect x="40" y="40" width="10" height="10" fill="#395886"/>
<rect x="50" y="40" width="10" height="10" fill="#395886"/>
<rect x="70" y="40" width="10" height="10" fill="#395886"/>
<rect x="80" y="40" width="10" height="10" fill="#395886"/>
<rect x="110" y="40" width="10" height="10" fill="#395886"/>
<rect x="130" y="40" width="10" height="10" fill="#395886"/>
<rect x="150" y="40" width="10" height="10" fill="#395886"/>
<rect x="170" y="40" width="10" height="10" fill="#395886"/>
<rect x="180" y="40" width="10" height="10" fill="#395886"/>
<rect x="190" y="40" width="10" height="10" fill="#395886"/>
<rect x="210" y="40" width="10" height="10" fill="#395886"/>
<rect x="10" y="50" width="10" height="10" fill="#395886"/>
<rect x="30" y="50" width="10" height="10" fill="#395886"/>
<rect x="40" y="50" width="10" height="10" fill="#395886"/>
<rect x="50" y="50" width="10" height="10" fill="#395886"/>
<rect x="70" y="50" width="10" height="10" fill="#395886"/>
<rect x="110" y="50" width="10" height="10" fill="#395886"/>
<rect x="120" y="50" width="10" height="10" fill="#395886"/>
<rect x="150" y="50" width="10" height="10" fill="#395886"/>
<rect x="170" y="50" width="10" height="10" fill="#395886"/>
<rect x="180" y="50" width="10" height="10" fill="#395886"/>
<rect x="190" y="50" width="10" height="10" fill="#395886"/>
<rect x="210" y="50" width="10" height="10" fill="#395886"/>
<rect x="10" y="60" width="10" height="10" fill="#395886"/>
<rect x="70" y="60" width="10" height="10" fill="#395886"/>
<rect x="90" y="60" width="10" height="10" fill="#395886"/>
<rect x="120" y="60" width="10" height="10" fill="#395886"/>
<rect x="150" y="60" width="10" height="10" fill="#395886"/>
<rect x="210" y="60" width="10" height="10" fill="#395886"/>
<rect x="10" y="70" width="10" height="10" fill="#395886"/>
<rect x="20" y="70" width="10" height="10" fill="#395886"/>
<rect x="30" y="70" width="10" height="10" fill="#395886"/>
<rect x="40" y="70" width="10" height="10" fill="#395886"/>
<rect x="50" y="70" width="10" height="10" fill="#395886"/>
<rect x="60" y="70" width="10" height="10" fill="#395886"/>
<rect x="70" y="70" width="10" height="10" fill="#395886"/>
<rect x="90" y="70" width="10" height="10" fill="#395886"/>
<rect x="110" y="70" width="10" height="10" fill="#395886"/>
<rect x="140" y="70" width="10" height="10" fill="#395886"/>
<rect x="150" y="70" width="10" height="10" fill="#395886"/>
<rect x="160" y="70" width="10" height="10" fill="#395886"/>
<rect x="170" y="70" width="10" height="10" fill="#395886"/>
<rect x="180" y="70" width="10" height="10" fill="#395886"/>
<rect x="190" y="70" width="10" height="10" fill="#395886"/>
<rect x="200" y="70" width="10" height="10" fill="#395886"/>
<rect x="210" y="70" width="10" height="10" fill="#395886"/>
<rect x="20" y="80" width="10" height="10" fill="#395886"/>
<rect x="30" y="80" width="10" height="10" fill="#395886"/>
<rect x="80" y="80" width="10" height="10" fill="#395886"/>
<rect x="90" y="80" width="10" height="10" fill="#395886"/>
<rect x="100" y="80" width="10" height="10" fill="#395886"/>
<rect x="120" y="80" width="10" height="10" fill="#395886"/>
<rect x="130" y="80" width="10" height="10" fill="#395886"/>
<rect x="140" y="80" width="10" height="10" fill="#395886"/>
<rect x="160" y="80" width="10" height="10" fill="#395886"/>
<rect x="190" y="80" width="10" height="10" fill="#395886"/>
<rect x="200" y="80" width="10" height="10" fill="#395886"/>
<rect x="10" y="90" width="10" height="10" fill="#395886"/>
<rect x="20" y="90" width="10" height="10" fill="#395886"/>
<rect x="80" y="90" width="10" height="10" fill="#395886"/>
<rect x="90" y="90" width="10" height="10" fill="#395886"/>
<rect x="160" y="90" width="10" height="10" fill="#395886"/>
<rect x="170" y="90" width="10" height="10" fill="#395886"/>
<rect x="180" y="90" width="10" height="10" fill="#395886"/>
<rect x="200" y="90" width="10" height="10" fill="#395886"/>
<rect x="210" y="90" width="10" height="10" fill="#395886"/>
<rect x="30" y="100" width="10" height="10" fill="#395886"/>
<rect x="40" y="100" width="10" height="10" fill="#395886"/>
<rect x="90" y="100" width="10" height="10" fill="#395886"/>
<rect x="150" y="100" width="10" height="10" fill="#395886"/>
<rect x="170" y="100" width="10" height="10" fill="#395886"/>
<rect x="180" y="100" width="10" height="10" fill="#395886"/>
<rect x="190" y="100" width="10" height="10" fill="#395886"/>
<rect x="200" y="100" width="10" height="10" fill="#395886"/>
<rect x="10" y="110" width="10" height="10" fill="#395886"/>
<rect x="90" y="110" width="10" height="10" fill="#395886"/>
<rect x="100" y="110" width="10" height="10" fill="#395886"/>
<rect x="150" y="110" width="10" height="10" fill="#395886"/>
<rect x="190" y="110" width="10" height="10" fill="#395886"/>
<rect x="210" y="110" width="10" height="10" fill="#395886"/>
<rect x="10" y="120" width="10" height="10" fill="#395886"/>
<rect x="40" y="120" width="10" height="10" fill="#395886"/>
<rect x="50" y="120" width="10" height="10" fill="#395886"/>
<rect x="70" y="120" width="10" height="10" fill="#395886"/>
<rect x="100" y="120" width="10" height="10" fill="#395886"/>
<rect x="140" y="120" width="10" height="10" fill="#395886"/>
<rect x="160" y="120" width="10" height="10" fill="#395886"/>
<rect x="170" y="120" width="10" height="10" fill="#395886"/>
<rect x="190" y="120" width="10" height="10" fill="#395886"/>
<rect x="200" y="120" width="10" height="10" fill="#395886"/>
<rect x="10" y="130" width="10" height="10" fill="#395886"/>
<rect x="50" y="130" width="10" height="10" fill="#395886"/>
<rect x="60" y="130" width="10" height="10" fill="#395886"/>
<rect x="70" y="130" width="10" height="10" fill="#395886"/>
<rect x="110" y="130" width="10" height="10" fill="#395886"/>
<rect x="120" y="130" width="10" height="10" fill="#395886"/>
<rect x="180" y="130" width="10" height="10" fill="#395886"/>
<rect x="200" y="130" width="10" height="10" fill="#395886"/>
<rect x="20" y="140" width="10" height="10" fill="#395886"/>
<rect x="30" y="140" width="10" height="10" fill="#395886"/>
<rect x="40" y="140" width="10" height="10" fill="#395886"/>
<rect x="60" y="140" width="10" height="10" fill="#395886"/>
<rect x="90" y="140" width="10" height="10" fill="#395886"/>
<rect x="110" y="140" width="10" height="10" fill="#395886"/>
<rect x="150" y="140" width="10" height="10" fill="#395886"/>
<rect x="170" y="140" width="10" height="10" fill="#395886"/>
<rect x="180" y="140" width="10" height="10" fill="#395886"/>
<rect x="210" y="140" width="10" height="10" fill="#395886"/>
<rect x="10" y="150" width="10" height="10" fill="#395886"/>
<rect x="20" y="150" width="10" height="10" fill="#395886"/>
<rect x="30" y="150" width="10" height="10" fill="#395886"/>
<rect x="40" y="150" width="10" height="10" fill="#395886"/>
<rect x="50" y="150" width="10" height="10" fill="#395886"/>
<rect x="60" y="150" width="10" height="10" fill="#395886"/>
<rect x="70" y="150" width="10" height="10" fill="#395886"/>
<rect x="110" y="150" width="10" height="10" fill="#395886"/>
<rect x="120" y="150" width="10" height="10" fill="#395886"/>
<rect x="130" y="150" width="10" height="10" fill="#395886"/>
<rect x="180" y="150" width="10" height="10" fill="#395886"/>
<rect x="190" y="150" width="10" height="10" fill="#395886"/>
<rect x="200" y="150" width="10" height="10" fill="#395886"/>
<rect x="10" y="160" width="10" height="10" fill="#395886"/>
<rect x="70" y="160" width="10" height="10" fill="#395886"/>
<rect x="100" y="160" width="10" height="10" fill="#395886"/>
<rect x="120" y="160" width="10" height="10" fill="#395886"/>
<rect x="170" y="160" width="10" height="10" fill="#395886"/>
<rect x="190" y="160" width="10" height="10" fill="#395886"/>
<rect x="10" y="170" width="10" height="10" fill="#395886"/>
<rect x="30" y="170" width="10" height="10" fill="#395886"/>
<rect x="40" y="170" width="10" height="10" fill="#395886"/>
<rect x="50" y="170" width="10" height="10" fill="#395886"/>
<rect x="70" y="170" width="10" height="10" fill="#395886"/>
<rect x="80" y="170" width="10" height="10" fill="#395886"/>
<rect x="90" y="170" width="10" height="10" fill="#395886"/>
<rect x="120" y="170" width="10" height="10" fill="#395886"/>
<rect x="140" y="170" width="10" height="10" fill="#395886"/>
<rect x="180" y="170" width="10" height="10" fill="#395886"/>
<rect x="200" y="170" width="10" height="10" fill="#395886"/>
<rect x="10" y="180" width="10" height="10" fill="#395886"/>
<rect x="30" y="180" width="10" height="10" fill="#395886"/>
<rect x="40" y="180" width="10" height="10" fill="#395886"/>
<rect x="50" y="180" width="10" height="10" fill="#395886"/>
<rect x="70" y="180" width="10" height="10" fill="#395886"/>
<rect x="80" y="180" width="10" height="10" fill="#395886"/>
<rect x="100" y="180" width="10" height="10" fill="#395886"/>
<rect x="120" y="180" width="10" height="10" fill="#395886"/>
<rect x="180" y="180" width="10" height="10" fill="#395886"/>
<rect x="190" y="180" width="10" height="10" fill="#395886"/>
<rect x="210" y="180" width="10" height="10" fill="#395886"/>
<rect x="10" y="190" width="10" height="10" fill="#395886"/>
<rect x="30" y="190" width="10" height="10" fill="#395886"/>
<rect x="40" y="190" width="10" height="10" fill="#395886"/>
<rect x="50" y="190" width="10" height="10" fill="#395886"/>
<rect x="70" y="190" width="10" height="10" fill="#395886"/>
<rect x="80" y="190" width="10" height="10" fill="#395886"/>
<rect x="90" y="190" width="10" height="10" fill="#395886"/>
<rect x="150" y="190" width="10" height="10" fill="#395886"/>
<rect x="170" y="190" width="10" height="10" fill="#395886"/>
<rect x="180" y="190" width="10" height="10" fill="#395886"/>
<rect x="10" y="200" width="10" height="10" fill="#395886"/>
<rect x="70" y="200" width="10" height="10" fill="#395886"/>
<rect x="80" y="200" width="10" height="10" fill="#395886"/>
<rect x="110" y="200" width="10" height="10" fill="#395886"/>
<rect x="150" y="200" width="10" height="10" fill="#395886"/>
<rect x="160" y="200" width="10" height="10" fill="#395886"/>
<rect x="170" y="200" width="10" height="10" fill="#395886"/>
<rect x="180" y="200" width="10" height="10" fill="#395886"/>
<rect x="210" y="200" width="10" height="10" fill="#395886"/>
<rect x="10" y="210" width="10" height="10" fill="#395886"/>
<rect x="20" y="210" width="10" height="10" fill="#395886"/>
<rect x="30" y="210" width="10" height="10" fill="#395886"/>
<rect x="40" y="210" width="10" height="10" fill="#395886"/>
<rect x="50" y="210" width="10" height="10" fill="#395886"/>
<rect x="60" y="210" width="10" height="10" fill="#395886"/>
<rect x="70" y="210" width="10" height="10" fill="#395886"/>
<rect x="80" y="210" width="10" height="10" fill="#395886"/>
<rect x="110" y="210" width="10" height="10" fill="#395886"/>
<rect x="130" y="210" width="10" height="10" fill="#395886"/>
<rect x="160" y="210" width="10" height="10" fill="#395886"/>
<rect x="170" y="210" width="10" height="10" fill="#395886"/>
</svg>