<svg width="200" height="200" viewBox="0 0 200 200" fill="none" xmlns="http://www.w3.org/2000/svg">
<rect width="200" height="200" rx="100" fill="#628ECE"/>
<path d="M64.5518 71.4254V48.8019C64.5518 48.5683 64.3628 48.3789 64.1296 48.3789H48.1262C47.893 48.3789 47.704 48.5683 47.704 48.8019V71.4254C47.704 71.659 47.893 71.8484 48.1262 71.8484H64.1296C64.3628 71.8484 64.5518 71.659 64.5518 71.4254Z" fill="#F0F3F8"/>
<path d="M157.443 77.5249H129.936C129.75 77.5249 129.571 77.4506 129.439 77.3184C129.307 77.1862 129.233 77.0069 129.233 76.8199V53.1982C129.233 53.0112 129.159 52.8319 129.027 52.6997C128.895 52.5674 128.716 52.4932 128.529 52.4932H72.1027C71.9161 52.4932 71.7371 52.5674 71.6052 52.6997C71.4733 52.8319 71.3991 53.0112 71.3991 53.1982V76.8199C71.3991 77.0069 71.325 77.1862 71.1931 77.3184C71.0611 77.4506 70.8822 77.5249 70.6956 77.5249H43.1958C43.0092 77.5249 42.8302 77.5992 42.6983 77.7314C42.5663 77.8636 42.4922 78.0429 42.4922 78.2299V126.883C42.4922 127.07 42.5663 127.25 42.6983 127.382C42.8302 127.514 43.0092 127.588 43.1958 127.588H70.7167C70.9033 127.588 71.0822 127.663 71.2142 127.795C71.3461 127.927 71.4202 128.106 71.4202 128.293V151.915C71.4202 152.102 71.4944 152.281 71.6263 152.414C71.7582 152.546 71.9372 152.62 72.1238 152.62H128.55C128.737 152.62 128.916 152.546 129.048 152.414C129.18 152.281 129.254 152.102 129.254 151.915V128.293C129.254 128.106 129.328 127.927 129.46 127.795C129.592 127.663 129.771 127.588 129.957 127.588H157.449C157.635 127.588 157.814 127.514 157.946 127.382C158.078 127.25 158.152 127.07 158.152 126.883V78.2299C158.152 78.1368 158.134 78.0447 158.098 77.9588C158.062 77.8729 158.01 77.7949 157.944 77.7294C157.878 77.6638 157.8 77.612 157.714 77.5769C157.628 77.5418 157.536 77.5241 157.443 77.5249Z" fill="#F0F3F8"/>
<path d="M156.226 55.6211H133.649C133.416 55.6211 133.227 55.8105 133.227 56.0441V72.08C133.227 72.3136 133.416 72.503 133.649 72.503H156.226C156.459 72.503 156.648 72.3136 156.648 72.08V56.0441C156.648 55.8105 156.459 55.6211 156.226 55.6211Z" fill="#F0F3F8"/>
<path d="M162.531 116.642H128.878C128.645 116.642 128.456 116.831 128.456 117.065V119.421C128.456 119.654 128.645 119.844 128.878 119.844H162.531C162.765 119.844 162.954 119.654 162.954 119.421V117.065C162.954 116.831 162.765 116.642 162.531 116.642Z" fill="#A8B9DF"/>
<path d="M160.527 119.844H130.883C130.65 119.844 130.461 120.033 130.461 120.267V149.591C130.461 149.824 130.65 150.014 130.883 150.014H160.527C160.76 150.014 160.949 149.824 160.949 149.591V120.267C160.949 120.033 160.76 119.844 160.527 119.844Z" fill="#A8B9DF"/>
<path d="M158.651 116.642H124.997C124.764 116.642 124.575 116.831 124.575 117.065V119.421C124.575 119.654 124.764 119.844 124.997 119.844H158.651C158.884 119.844 159.073 119.654 159.073 119.421V117.065C159.073 116.831 158.884 116.642 158.651 116.642Z" fill="#C4CFE6"/>
<path d="M156.688 120.267V149.595C156.688 149.707 156.644 149.815 156.564 149.894C156.485 149.973 156.378 150.018 156.266 150.018H126.997C126.885 150.018 126.778 149.973 126.699 149.894C126.62 149.815 126.575 149.707 126.575 149.595V120.267C126.575 120.155 126.62 120.047 126.699 119.968C126.778 119.888 126.885 119.844 126.997 119.844H156.266C156.378 119.844 156.485 119.888 156.564 119.968C156.644 120.047 156.688 120.155 156.688 120.267Z" fill="#E7EBF6"/>
<path d="M153.105 122.976H130.541C130.308 122.976 130.119 123.165 130.119 123.399V128.977C130.119 129.21 130.308 129.4 130.541 129.4H153.105C153.338 129.4 153.527 129.21 153.527 128.977V123.399C153.527 123.165 153.338 122.976 153.105 122.976Z" fill="#C4CFE6"/>
<path d="M153.105 132.173H130.541C130.308 132.173 130.119 132.362 130.119 132.596V138.174C130.119 138.407 130.308 138.597 130.541 138.597H153.105C153.338 138.597 153.527 138.407 153.527 138.174V132.596C153.527 132.362 153.338 132.173 153.105 132.173Z" fill="#C4CFE6"/>
<path d="M153.105 141.369H130.541C130.308 141.369 130.119 141.559 130.119 141.792V147.37C130.119 147.604 130.308 147.793 130.541 147.793H153.105C153.338 147.793 153.527 147.604 153.527 147.37V141.792C153.527 141.559 153.338 141.369 153.105 141.369Z" fill="#C4CFE6"/>
<path d="M137.931 122.976H145.722C145.722 123.406 145.552 123.818 145.248 124.122C144.945 124.426 144.533 124.597 144.104 124.597H139.546C139.117 124.596 138.706 124.425 138.404 124.121C138.101 123.817 137.931 123.405 137.931 122.976Z" fill="#E7EBF6"/>
<path d="M137.931 132.173H145.722C145.722 132.603 145.551 133.015 145.248 133.319C144.944 133.624 144.533 133.794 144.104 133.794H139.546C139.117 133.794 138.705 133.624 138.402 133.319C138.098 133.015 137.928 132.603 137.928 132.173H137.931Z" fill="#E7EBF6"/>
<path d="M137.931 141.369H145.722C145.722 141.799 145.551 142.212 145.248 142.516C144.944 142.82 144.533 142.991 144.104 142.991H139.546C139.117 142.991 138.705 142.82 138.402 142.516C138.098 142.212 137.928 141.799 137.928 141.369H137.931Z" fill="#E7EBF6"/>
<path d="M128.945 152.621H128.221C128.121 152.621 128.025 152.581 127.954 152.51C127.883 152.439 127.843 152.343 127.843 152.243V150.014H130.445L129.288 152.411C129.256 152.474 129.207 152.528 129.146 152.565C129.086 152.602 129.016 152.621 128.945 152.621Z" fill="#C4CFE6"/>
<path d="M133.212 152.621H132.485C132.385 152.621 132.289 152.581 132.218 152.51C132.147 152.439 132.107 152.343 132.107 152.243V150.014H134.709L133.553 152.411C133.521 152.474 133.472 152.527 133.412 152.564C133.352 152.601 133.283 152.621 133.212 152.621Z" fill="#A8B9DF"/>
<path d="M155.026 152.621H155.752C155.801 152.621 155.85 152.611 155.896 152.592C155.942 152.573 155.984 152.546 156.019 152.511C156.054 152.475 156.082 152.434 156.101 152.388C156.12 152.342 156.13 152.293 156.13 152.243V150.014H153.528L154.685 152.411C154.717 152.474 154.765 152.527 154.825 152.564C154.886 152.601 154.955 152.621 155.026 152.621Z" fill="#C4CFE6"/>
<path d="M159.318 152.621H160.045C160.094 152.621 160.143 152.611 160.189 152.592C160.235 152.573 160.277 152.546 160.312 152.511C160.347 152.475 160.375 152.434 160.394 152.388C160.413 152.342 160.423 152.293 160.423 152.243V150.014H157.821L158.978 152.411C159.01 152.474 159.058 152.527 159.118 152.564C159.179 152.601 159.248 152.621 159.318 152.621Z" fill="#A8B9DF"/>
<path opacity="0.42" d="M142.916 119.844L134.978 150.014H128.692L136.63 119.844H142.916Z" fill="#F4F7FC"/>
<path opacity="0.42" d="M156.428 119.877L148.498 150.014H138.226L146.163 119.84H156.265C156.321 119.841 156.377 119.853 156.428 119.877Z" fill="#F4F7FC"/>
<path d="M44.777 134.142C44.6081 134.142 44.4097 133.952 43.9046 132.48C42.8858 129.519 42.3778 128.031 42.7704 126.276C42.9322 125.554 43.2559 124.866 43.9046 123.478C44.4308 122.35 44.6729 122.033 45.0387 121.117C45.6156 119.676 45.5326 119.188 45.8253 118.407C46.8525 115.657 50.6462 114.318 50.9741 114.734C51.1148 114.909 50.5716 115.324 49.7512 116.832C49.2408 117.747 48.8313 118.714 48.5298 119.718C47.9388 121.825 48.6565 122.057 48.0936 124.265C47.8122 125.355 47.618 125.393 47.0467 127.325C46.7653 128.275 46.7498 128.484 46.436 129.687C45.6832 132.548 45.2667 134.142 44.777 134.142Z" fill="#A8B9DF"/>
<path d="M41.6319 130.47C41.3223 130.716 40.523 129.674 37.7918 128.022C35.9329 126.894 33.6069 125.748 33.4296 125.66C31.6172 124.769 31.1852 124.665 30.5506 123.999C29.7471 123.153 29.9413 122.801 28.8043 121.2C27.9249 119.962 27.6547 119.958 26.9751 118.84C26.3925 117.884 25.7086 116.451 26.0154 116.216C26.1561 116.106 26.4713 116.293 27.0623 116.653C27.9474 117.193 28.1627 117.506 28.7199 117.878C29.7049 118.531 29.9089 118.141 30.9024 118.752C31.302 118.999 31.7467 119.47 32.6472 120.413C33.5478 121.357 33.5619 121.461 34.0431 121.9C34.734 122.528 35.2814 122.839 35.8724 123.212C36.9693 123.895 38.017 124.655 39.0075 125.485C41.0704 127.301 42.0864 130.11 41.6319 130.47Z" fill="#A8B9DF"/>
<path d="M26.6493 117.121C27.6934 118.146 28.7262 119.167 29.7943 120.15C30.0588 120.397 30.329 120.639 30.5977 120.882C30.8665 121.124 31.1367 121.367 31.4097 121.603L33.0532 123.025C34.137 123.993 35.2749 124.9 36.4613 125.739C37.0607 126.154 37.6785 126.538 38.2906 126.936C38.9172 127.325 39.5174 127.755 40.0875 128.223C40.6598 128.709 41.1665 129.266 41.5946 129.883C42.0227 130.501 42.3849 131.163 42.6752 131.857C43.2662 133.239 43.5969 134.7 43.8446 136.145C43.967 136.87 44.0725 137.593 44.1696 138.318C44.2175 138.679 44.2667 139.044 44.3103 139.409C44.354 139.774 44.3849 140.139 44.4173 140.506C44.5413 141.969 44.5606 143.439 44.475 144.905H44.4046C44.2569 143.45 44.0922 142.005 43.8671 140.569C43.7545 139.852 43.6307 139.141 43.497 138.423L43.1058 136.275C42.8399 134.85 42.5739 133.433 42.0603 132.107C41.8046 131.441 41.4896 130.799 41.1189 130.19C40.7559 129.577 40.3208 129.009 39.823 128.498C39.3127 127.994 38.7574 127.537 38.1639 127.134C37.5687 126.718 36.9552 126.323 36.3347 125.928C35.1076 125.14 33.8525 124.377 32.6845 123.48C32.1006 123.035 31.5349 122.567 30.996 122.07C30.7244 121.823 30.4556 121.572 30.1911 121.32C29.9265 121.068 29.669 120.803 29.4129 120.54C28.3889 119.491 27.448 118.363 26.5986 117.168L26.6493 117.121Z" fill="#899FCA"/>
<path d="M39.7115 133.17C39.62 133.408 38.7433 132.974 37.3925 133.392C36.4075 133.698 36.3371 134.097 35.0144 134.754C34.0618 135.228 33.3976 135.558 32.5294 135.574C31.4206 135.593 31.142 135.077 29.4829 134.643C28.6345 134.427 27.7635 134.312 26.8882 134.3C24.1358 134.204 22.6921 135.101 22.436 134.684C22.1545 134.228 23.5378 132.625 25.2277 131.524C28.7822 129.207 32.7067 129.762 33.2808 129.852C36.9999 130.433 39.8831 132.717 39.7115 133.17Z" fill="#C4CFE6"/>
<path d="M23.292 133.98C23.7129 133.581 24.1958 133.254 24.7216 133.011C24.8539 132.95 24.9876 132.895 25.1213 132.836C25.255 132.777 25.3957 132.739 25.5336 132.695C25.6715 132.651 25.815 132.615 25.9557 132.575C26.0964 132.536 26.2371 132.516 26.3779 132.486C26.9566 132.382 27.5463 132.352 28.1326 132.398C28.2792 132.406 28.4253 132.422 28.5702 132.446L28.7883 132.477L28.8966 132.494L28.9966 132.509C29.2583 132.557 29.5299 132.589 29.8014 132.615C30.9172 132.71 32.0389 132.71 33.1547 132.615C34.2804 132.518 35.392 132.333 36.5318 132.213C37.109 132.144 37.6916 132.133 38.271 132.179C38.579 132.209 38.8814 132.281 39.1702 132.392C39.4908 132.511 39.7716 132.719 39.9807 132.99C40.3476 133.447 40.6694 133.939 40.9418 134.459C41.2077 134.994 41.3972 135.563 41.5046 136.151L41.5736 136.585C41.5989 136.726 41.6074 136.874 41.6228 137.02C41.6566 137.302 41.6665 137.596 41.6805 137.884C41.6946 138.172 41.689 138.458 41.6946 138.744L41.6735 139.6C41.6259 140.737 41.5202 141.871 41.3569 142.997H41.2865C41.212 141.869 41.181 140.731 41.1191 139.613C41.0786 138.503 40.9611 137.398 40.7673 136.305C40.6647 135.781 40.5028 135.27 40.2847 134.783C40.0464 134.293 39.7662 133.825 39.4474 133.383C39.2152 133.027 38.7101 132.846 38.1936 132.742C37.6516 132.649 37.1028 132.602 36.5529 132.601C35.4263 132.605 34.3013 132.685 33.1856 132.842L31.497 133.074C30.928 133.157 30.3539 133.2 29.7789 133.201C29.6382 133.201 29.4876 133.201 29.3399 133.183C29.2667 133.183 29.1992 133.173 29.1204 133.165L28.8995 133.134L28.4872 133.076C28.3464 133.06 28.2198 133.027 28.0847 133.022L27.6795 132.99C27.5388 132.99 27.4093 132.99 27.2742 132.99C27.2067 132.99 27.1335 132.99 27.0716 132.99L26.8675 133.001C26.732 133.004 26.5967 133.015 26.4623 133.032C25.3616 133.147 24.2972 133.492 23.337 134.043L23.292 133.98Z" fill="#A4B5DD"/>
<path d="M41.7194 118.84C41.2536 118.881 40.6514 117.178 40.4107 115.779C40.1293 114.141 40.4783 113.712 40.4107 111.057C40.3921 110.003 40.3042 108.952 40.1476 107.91C39.8451 105.948 39.4806 105.434 39.1879 104.062C38.4844 100.757 39.278 97.5181 39.7114 97.504C39.9281 97.4969 39.9844 98.2865 40.498 99.602C40.9877 100.86 41.4042 101.185 42.679 103.268C43.581 104.744 44.0313 105.483 44.1622 105.891C44.649 107.402 44.4169 108.711 44.0749 110.525C43.6823 112.606 43.3376 112.632 42.679 115.335C42.1035 117.691 42.0909 118.808 41.7194 118.84Z" fill="#C4CFE6"/>
<path d="M39.7471 99.0693C40.3564 100.902 40.9404 102.748 41.6228 104.543C41.7059 104.767 41.7945 104.99 41.8846 105.21L41.9521 105.379L42.0211 105.564C42.0633 105.688 42.0999 105.813 42.1294 105.94C42.2344 106.437 42.2816 106.944 42.2701 107.452C42.2609 107.944 42.2266 108.436 42.1674 108.925C42.1167 109.412 42.0408 109.891 41.9732 110.369C41.8325 111.324 41.6791 112.273 41.5877 113.229C41.4885 114.184 41.4744 115.146 41.5454 116.104C41.5833 116.582 41.6481 117.058 41.7396 117.529C41.7875 117.763 41.8283 118.004 41.8719 118.244L41.9366 118.603L41.9704 118.783L41.9929 118.964C42.1271 119.929 42.2093 120.9 42.2392 121.873C42.2589 122.845 42.2645 123.819 42.2181 124.789C42.1716 125.759 42.1041 126.726 42.0478 127.687C41.9915 128.647 41.9352 129.611 41.9282 130.566C41.9183 131.044 41.9282 131.518 41.9437 131.991L41.9929 132.696C42.007 132.932 42.0534 133.16 42.0773 133.393C42.3588 135.282 42.7683 137.177 43.082 139.089C43.2411 140.047 43.379 141.011 43.4578 141.983C43.5 142.468 43.5197 142.954 43.5295 143.441C43.5295 143.683 43.5295 143.927 43.5295 144.17C43.5295 144.412 43.5084 144.655 43.4986 144.897H43.4282C43.2115 141.025 41.9662 137.364 41.333 133.506C41.1942 132.525 41.1471 131.534 41.1922 130.545C41.2007 130.055 41.2373 129.57 41.264 129.083C41.2908 128.595 41.3386 128.114 41.3836 127.632L41.6496 124.752C41.7382 123.792 41.8086 122.833 41.848 121.872L41.8564 121.153C41.8564 121.031 41.8564 120.912 41.8564 120.792L41.8452 120.432C41.8353 120.193 41.8353 119.951 41.817 119.712L41.7495 118.995C41.734 118.754 41.6819 118.52 41.6453 118.282C41.6088 118.044 41.5694 117.811 41.5229 117.57C41.4765 117.329 41.4399 117.091 41.4005 116.849C41.3611 116.608 41.333 116.367 41.3119 116.125C41.1036 114.189 41.1796 112.22 41.385 110.296C41.4821 109.333 41.6088 108.378 41.6411 107.441C41.661 106.981 41.6284 106.521 41.544 106.069C41.5187 105.96 41.4948 105.851 41.4624 105.746L41.4118 105.589L41.3499 105.419C41.2654 105.188 41.1847 104.958 41.1078 104.728C40.9488 104.267 40.8109 103.8 40.6758 103.333C40.5407 102.866 40.4155 102.398 40.2973 101.923C40.0609 100.983 39.8484 100.037 39.6768 99.082L39.7471 99.0693Z" fill="#A4B5DD"/>
<path d="M49.9067 133.258C49.804 132.622 51.5446 131.535 53.2233 131.425C53.4034 131.413 53.4414 131.425 55.7562 131.687C57.653 131.905 57.8669 131.927 58.1131 131.949C60.4391 132.162 60.1732 131.949 60.9049 132.124C62.3599 132.482 62.3444 133.08 64.396 133.786C65.1826 134.057 65.6076 134.115 65.6174 134.311C65.6385 134.676 64.2103 135.03 62.4767 135.447C60.342 135.963 59.2754 136.221 58.4621 136.152C56.9142 136.011 56.8509 135.407 54.5348 134.579C51.6459 133.537 50.0038 133.854 49.9067 133.258Z" fill="#C4CFE6"/>
<path d="M49.2335 142.623C49.022 142.117 48.8406 141.599 48.6903 141.072C48.6129 140.81 48.5397 140.545 48.4764 140.277C48.4131 140.009 48.3498 139.742 48.2991 139.473C48.2484 139.204 48.1978 138.932 48.1584 138.658C48.119 138.385 48.0866 138.111 48.0599 137.835C48.0026 137.28 47.9975 136.721 48.0444 136.165C48.0893 135.597 48.2213 135.039 48.4356 134.511C48.5467 134.243 48.6981 133.993 48.8845 133.771C48.9791 133.659 49.0852 133.557 49.2011 133.468C49.3189 133.382 49.4458 133.309 49.5796 133.251C49.7123 133.198 49.8493 133.156 49.9891 133.127C50.1214 133.096 50.2536 133.065 50.3845 133.031L51.1823 132.843C51.7153 132.714 52.2544 132.613 52.7977 132.539C53.3582 132.465 53.9259 132.465 54.4863 132.539C55.0405 132.623 55.5855 132.759 56.1144 132.945L56.5056 133.086C56.6364 133.132 56.756 133.168 56.8813 133.21C57.0065 133.252 57.1317 133.286 57.2584 133.321C57.385 133.356 57.5103 133.395 57.6411 133.423C58.1547 133.551 58.6782 133.654 59.2031 133.755C60.2528 133.953 61.3138 134.105 62.3846 134.217C62.9193 134.263 63.4554 134.312 63.9916 134.325C64.5295 134.349 65.0686 134.333 65.6042 134.277L65.621 134.345C65.0975 134.521 64.5554 134.635 64.0056 134.686L63.5948 134.727L63.1825 134.751C62.9081 134.766 62.6323 134.768 62.3579 134.771C61.8077 134.771 61.2575 134.747 60.7101 134.697C60.1627 134.648 59.6153 134.583 59.0708 134.497C58.5248 134.405 57.9842 134.284 57.4512 134.135C57.3175 134.1 57.1852 134.054 57.0515 134.012C56.9179 133.97 56.7856 133.93 56.6533 133.878C56.521 133.826 56.3845 133.777 56.2607 133.727L55.8935 133.574C54.9014 133.183 53.8981 132.911 52.8315 132.924C52.2947 132.929 51.7594 132.981 51.2316 133.079C50.9642 133.118 50.7011 133.183 50.4366 133.239C50.3057 133.269 50.1734 133.303 50.0426 133.335C49.9162 133.363 49.7931 133.404 49.6753 133.458C49.4499 133.572 49.2564 133.741 49.1124 133.949C48.9722 134.162 48.8672 134.396 48.8015 134.642C48.6791 135.15 48.6214 135.671 48.6298 136.193C48.6298 136.721 48.6523 137.251 48.6818 137.784C48.6987 138.05 48.7227 138.317 48.7508 138.583C48.7789 138.85 48.8043 139.118 48.838 139.384C48.9675 140.454 49.1406 141.523 49.3024 142.603L49.2335 142.623Z" fill="#A4B5DD"/>
<path d="M47.9151 130.557C47.6013 130.392 48.2655 128.228 49.311 126.272C50.0075 124.97 50.6942 123.685 52.1042 122.511C53.8462 121.062 55.7135 120.598 57.1699 120.239C59.51 119.659 59.8209 120.114 61.4462 119.452C63.8074 118.487 64.6967 116.891 65.1047 117.177C65.5128 117.464 65.0386 119.524 63.7089 120.763C62.9307 121.488 61.9049 121.904 61.2661 122.162C60.025 122.665 59.5184 122.596 58.9091 123.212C58.5306 123.594 58.615 123.735 57.9494 124.786C57.4077 125.642 57.1234 126.091 56.728 126.447C56.0343 127.071 55.5263 126.936 53.4986 127.408C51.8101 127.803 50.9658 128.001 50.0948 128.546C48.6102 129.48 48.1543 130.682 47.9151 130.557Z" fill="#DDE6F4"/>
<path d="M64.0946 118.839C64.072 119.064 63.9861 119.279 63.847 119.458C63.778 119.542 63.7161 119.637 63.6401 119.716C63.5641 119.795 63.4924 119.874 63.4108 119.958C63.0879 120.25 62.7377 120.51 62.3653 120.734C61.9974 120.961 61.6184 121.169 61.2297 121.357C61.0341 121.447 60.8385 121.538 60.6415 121.624C60.4445 121.71 60.2475 121.793 60.0477 121.87L59.4483 122.104C59.247 122.179 59.043 122.245 58.8404 122.313C58.4351 122.454 58.0299 122.595 57.6176 122.698C56.7986 122.948 55.9614 123.121 55.1283 123.297H55.1508C54.906 123.371 54.6471 123.468 54.3994 123.568C54.1518 123.668 53.8999 123.781 53.6565 123.899C53.413 124.018 53.1738 124.148 52.936 124.283C52.6982 124.418 52.4716 124.565 52.2465 124.72C51.3452 125.335 50.5501 126.093 49.8923 126.965C49.5712 127.401 49.2842 127.862 49.034 128.342C48.7918 128.82 48.5889 129.317 48.4275 129.828C48.3881 129.957 48.3431 130.082 48.3107 130.212L48.2108 130.601C48.1503 130.865 48.0982 131.131 48.0405 131.396C48.0152 131.529 47.9814 131.66 47.9589 131.794L47.8928 132.197C47.8506 132.467 47.7999 132.733 47.7633 133.002C47.6986 133.545 47.6156 134.082 47.5692 134.628L47.4847 135.443L47.4144 136.261L47.3792 136.668C47.3693 136.809 47.3609 136.942 47.3482 137.079L47.2821 137.896L47.1695 139.531C47.0358 141.72 46.9416 143.917 46.8431 146.121H46.7727C46.55 143.922 46.4593 141.712 46.5011 139.502C46.5208 137.285 46.716 135.072 47.0851 132.885C47.1315 132.603 47.192 132.338 47.2455 132.065L47.3285 131.656C47.3553 131.515 47.3947 131.385 47.4284 131.25C47.4988 130.978 47.5692 130.708 47.6395 130.438L47.7718 130.034C47.8154 129.893 47.8731 129.769 47.9223 129.637C48.3474 128.594 48.9386 127.628 49.6728 126.776C50.3949 125.93 51.2123 125.17 52.1086 124.513C52.3295 124.344 52.5575 124.184 52.7868 124.029C53.0162 123.874 53.2498 123.722 53.4904 123.578C53.731 123.434 53.9717 123.296 54.2193 123.165C54.467 123.034 54.716 122.914 54.989 122.801H55.0115C55.4168 122.681 55.8206 122.556 56.2287 122.444C56.4313 122.389 56.634 122.33 56.8352 122.268L57.4417 122.09L58.0496 121.915L58.6518 121.728C58.8516 121.665 59.0543 121.607 59.2527 121.538L59.8493 121.335C60.2503 121.208 60.6331 121.038 61.0285 120.897C61.4126 120.734 61.7996 120.573 62.1711 120.384C62.2625 120.336 62.3596 120.295 62.4525 120.243L62.7227 120.088C62.9084 119.992 63.0716 119.868 63.2475 119.755L63.4896 119.562C63.5726 119.5 63.6387 119.421 63.7147 119.354C63.86 119.214 63.9679 119.04 64.0285 118.847L64.0946 118.839Z" fill="#A4B5DD"/>
<path d="M49.1535 116.319C48.6814 116.701 48.2783 117.162 47.9616 117.681C47.8772 117.805 47.8069 117.939 47.7323 118.07C47.6577 118.201 47.5916 118.335 47.524 118.469C47.4565 118.603 47.3988 118.743 47.3411 118.881L47.2524 119.088L47.1751 119.3C46.97 119.866 46.8109 120.448 46.6994 121.04C46.5939 121.625 46.4982 122.255 46.3645 122.861C46.2309 123.468 46.0704 124.075 45.896 124.675C45.7215 125.274 45.5428 125.868 45.3824 126.465C45.2245 127.061 45.106 127.666 45.0278 128.277C45.0081 128.429 44.9898 128.583 44.9757 128.735C44.9591 128.888 44.9502 129.042 44.949 129.195C44.949 129.347 44.9363 129.497 44.949 129.651L44.9687 130.11C44.9996 130.725 45.0629 131.34 45.1178 131.954L45.2867 133.8C45.4035 135.03 45.5498 136.259 45.6624 137.49C45.7749 138.721 45.8847 139.955 45.986 141.189L46.1408 143.04C46.1732 143.346 46.1901 143.657 46.2238 143.963L46.2689 144.426L46.3265 144.886L46.259 144.904L46.1183 144.457L45.9987 144.004C45.9199 143.701 45.858 143.397 45.7876 143.092C45.6582 142.483 45.5423 141.872 45.44 141.259C45.3331 140.646 45.2388 140.031 45.1586 139.416C45.0784 138.801 44.9926 138.184 44.9236 137.568C44.7829 136.333 44.6985 135.092 44.6323 133.85C44.5523 132.605 44.5392 131.356 44.5929 130.11L44.6183 129.641C44.6281 129.486 44.6506 129.326 44.6647 129.168C44.6746 129.091 44.6802 129.012 44.6914 128.934L44.7294 128.703C44.752 128.548 44.7773 128.394 44.8054 128.241C44.9096 127.626 45.0418 127.017 45.1755 126.408L45.3669 125.497C45.426 125.194 45.4823 124.889 45.5315 124.584C45.6314 123.974 45.7144 123.362 45.8017 122.751C45.8889 122.141 45.9649 121.539 46.1042 120.909C46.131 120.752 46.176 120.598 46.2168 120.445C46.2576 120.291 46.2942 120.136 46.3434 119.984L46.5024 119.532C46.5531 119.381 46.6249 119.236 46.684 119.09L46.7796 118.87L46.8894 118.657C46.964 118.516 47.0301 118.375 47.123 118.234C47.2847 117.958 47.4687 117.696 47.6732 117.45C48.0652 116.945 48.5646 116.534 49.1352 116.247L49.1535 116.319Z" fill="#899FCA"/>
<path d="M39.8523 128.197C40.5741 127.896 40.2744 125.556 40.114 124.261C39.8762 122.395 39.5258 122.11 39.0657 119.714C38.8785 118.737 38.7674 117.751 38.5422 115.779C38.2186 112.931 38.2411 112.441 38.106 111.408C37.5431 107.055 35.4662 102.937 34.7035 103.101C34.4221 103.164 34.3377 103.842 34.1787 105.2C33.9789 106.927 34.5685 107.488 34.2659 108.785C34.0985 109.51 33.9507 109.296 33.3935 110.618C32.7561 112.137 32.2762 113.282 32.6083 114.466C32.8109 115.185 33.1078 115.189 33.3935 116.214C33.6017 116.959 33.5426 117.306 33.6552 118.047C33.7439 118.628 33.8902 119.147 34.4404 120.495C35.3213 122.65 35.7603 123.727 36.3612 124.693C37.0985 125.893 38.9925 128.551 39.8523 128.197Z" fill="#DDE6F4"/>
<path d="M34.73 103.085C34.953 103.493 35.1445 103.917 35.3027 104.354C35.4644 104.791 35.6011 105.237 35.7122 105.689C35.8277 106.142 35.9193 106.6 35.9866 107.063C36.0232 107.294 36.0457 107.526 36.0752 107.758C36.1048 107.989 36.1104 108.224 36.1287 108.463C36.147 108.701 36.1414 108.931 36.1484 109.168C36.1554 109.405 36.1484 109.636 36.1371 109.873L36.0766 111.25C36.0612 111.707 36.0471 112.163 36.0401 112.617C36.033 113.071 36.0401 113.525 36.0626 113.976C36.1044 114.887 36.1937 115.795 36.3299 116.697C36.4594 117.605 36.6226 118.512 36.7999 119.416C36.8956 119.864 36.9744 120.321 37.0996 120.758C37.1601 120.979 37.2122 121.201 37.2797 121.419C37.3473 121.638 37.4317 121.851 37.5091 122.065C37.5499 122.172 37.5837 122.281 37.6287 122.386L37.7694 122.702L38.0509 123.33C38.2549 123.741 38.4491 124.155 38.6587 124.565L39.2849 125.797C39.3876 126.005 39.496 126.209 39.5945 126.418L39.8872 127.048C40.0926 127.471 40.2558 127.894 40.436 128.33L40.5682 128.652C40.6104 128.76 40.647 128.871 40.6864 128.98L40.9186 129.638C41.0832 130.074 41.2071 130.522 41.3408 130.969L41.5378 131.639C41.5955 131.864 41.6461 132.091 41.701 132.317L41.86 132.997C41.9106 133.224 41.9683 133.449 42.0007 133.679L42.2301 135.045L42.285 135.389C42.3032 135.504 42.3117 135.621 42.3258 135.735L42.4032 136.427C42.4524 136.888 42.5115 137.349 42.5439 137.81C42.5903 138.737 42.6635 139.66 42.6733 140.585V141.973C42.6733 142.435 42.6846 142.896 42.6536 143.359C42.6227 143.821 42.6072 144.281 42.5819 144.742C42.5565 145.203 42.5312 145.663 42.4974 146.124H42.4271C42.3975 145.664 42.3764 145.203 42.3539 144.743C42.3314 144.284 42.3089 143.824 42.2934 143.364C42.2498 142.447 42.1682 141.531 42.1175 140.615C42.0992 140.157 42.0345 139.703 41.9937 139.246L41.8642 137.88C41.8445 137.651 41.8009 137.426 41.7742 137.2L41.6841 136.52L41.594 135.841C41.5786 135.728 41.5673 135.614 41.5476 135.501L41.4857 135.165L41.2591 133.815C41.2254 133.587 41.1691 133.368 41.1184 133.145L40.9777 132.478C40.9299 132.255 40.8848 132.031 40.837 131.809L40.6597 131.151C40.5415 130.711 40.4332 130.268 40.284 129.838C39.7451 128.098 39.033 126.416 38.314 124.72C38.1283 124.297 37.9566 123.874 37.7779 123.441L37.533 122.791L37.4078 122.467C37.367 122.36 37.3346 122.247 37.298 122.137C37.2277 121.916 37.1573 121.696 37.0827 121.476C37.0082 121.256 36.966 121.027 36.9069 120.803C36.7858 120.353 36.6916 119.903 36.5902 119.454L35.9613 116.759C35.7431 115.853 35.5865 114.934 35.4927 114.007C35.4144 113.077 35.4064 112.143 35.4688 111.212L35.5546 109.832C35.5644 109.606 35.5855 109.381 35.5912 109.155C35.5968 108.929 35.5996 108.702 35.5912 108.475L35.5701 107.797C35.5546 107.572 35.5461 107.345 35.525 107.119C35.5039 106.893 35.4842 106.666 35.4505 106.442C35.4167 106.218 35.3928 105.991 35.3534 105.767C35.2788 105.317 35.1873 104.87 35.0719 104.427C34.9635 103.983 34.8296 103.545 34.6709 103.116L34.73 103.085Z" fill="#A4B5DD"/>
<path d="M43.3296 123.038C42.8357 122.918 42.8484 120.912 43.0679 119.54C43.2726 118.312 43.6857 117.129 44.2893 116.041C44.8521 115.039 45.1336 114.96 45.5979 113.943C46.1242 112.806 45.9652 112.515 46.3845 111.494C46.8418 110.38 47.1444 110.455 48.3911 108.609C49.324 107.228 49.8208 106.494 50.136 105.366C50.5398 103.939 50.3513 102.947 50.5722 102.919C50.8184 102.886 51.37 104.064 51.3588 105.366C51.3588 106.083 51.1801 106.341 50.4849 108.427C49.9967 109.894 49.7518 110.638 49.6997 111.138C49.5717 112.375 49.8799 112.66 49.787 114.024C49.7532 114.527 49.6857 115.532 49.2635 116.472C48.4629 118.266 47.1697 118.076 45.4234 120.064C43.9755 121.721 43.7518 123.139 43.3296 123.038Z" fill="#DDE6F4"/>
<path d="M50.7812 104.576C50.8409 105.013 50.8204 105.457 50.7207 105.886C50.6343 106.313 50.5219 106.734 50.3844 107.147C50.2535 107.561 50.103 107.964 49.9327 108.366L49.678 108.96C49.5908 109.157 49.4937 109.35 49.3966 109.546C49.2151 109.94 49.0124 110.319 48.8154 110.704C48.6184 111.089 48.3933 111.458 48.1864 111.832C47.9796 112.206 47.746 112.572 47.5223 112.94L46.8609 114.027C45.9801 115.486 45.2583 117.035 44.708 118.648C44.4389 119.459 44.2125 120.284 44.0297 121.12L43.889 121.746L43.7793 122.377C43.7019 122.8 43.6512 123.223 43.5851 123.646C43.4781 124.492 43.3979 125.338 43.3346 126.193C43.3065 126.616 43.2755 127.039 43.2586 127.462C43.2488 127.679 43.2403 127.875 43.2502 128.075C43.2591 128.277 43.2812 128.477 43.3163 128.676C43.5977 130.375 43.8327 132.078 44.01 133.789C44.1873 135.499 44.3041 137.219 44.3365 138.944C44.3689 140.668 44.3238 142.401 44.0354 144.101H43.9664C43.9889 143.243 43.9917 142.39 43.9453 141.535C43.9383 141.322 43.9298 141.112 43.9129 140.896L43.8764 140.256C43.8496 139.833 43.8102 139.41 43.7821 138.979C43.6414 137.275 43.4627 135.575 43.2643 133.877C43.0658 132.18 42.8787 130.478 42.6592 128.782C42.6271 128.556 42.6093 128.329 42.6057 128.101C42.6037 127.876 42.6141 127.652 42.6367 127.429C42.6718 126.998 42.7155 126.568 42.7774 126.139C42.8857 125.281 43.0419 124.432 43.2094 123.586C43.3768 122.74 43.5794 121.902 43.7961 121.069C44.0128 120.236 44.2422 119.408 44.4885 118.583C44.9894 116.939 45.5424 115.292 46.3487 113.748C46.5598 113.372 46.7708 112.978 46.9875 112.62L47.6489 111.526C48.0809 110.791 48.5087 110.055 48.9153 109.305C49.322 108.555 49.6949 107.795 50.0326 107.017C50.1996 106.627 50.3487 106.231 50.4801 105.828L50.5701 105.524C50.5969 105.422 50.6194 105.319 50.6447 105.216C50.6921 105.013 50.7144 104.805 50.7109 104.596L50.7812 104.576Z" fill="#A4B5DD"/>
<path d="M52.6644 115.109C55.2705 113.331 55.4787 113.276 56.0683 112.66C57.4417 111.226 57.1603 110.668 58.4267 109.338C60.0716 107.607 62.4596 106.548 62.9647 107.064C63.2279 107.333 62.8015 107.849 61.9178 110.475C61.2452 112.472 61.355 112.59 60.9581 113.186C60.3953 114.032 59.5904 114.542 57.9905 115.546C56.5214 116.468 56.1021 116.509 55.3732 117.295C54.9384 117.761 54.9173 117.929 54.1504 118.87C53.6651 119.486 53.1406 120.07 52.58 120.618C51.6133 121.533 50.7704 122.874 49.0467 122.733C48.6991 122.698 49.625 117.182 52.6644 115.109Z" fill="#DDE6F4"/>
<path d="M61.5957 108.568C61.1182 109.434 60.5477 110.246 59.8945 110.988C59.5652 111.357 59.2289 111.722 58.8645 112.059C58.6872 112.234 58.4972 112.393 58.3129 112.56C58.1285 112.726 57.9273 112.874 57.7345 113.032L57.1351 113.472L56.8537 113.686C56.758 113.756 56.6637 113.827 56.5722 113.906L56.2992 114.133C56.2092 114.21 56.1276 114.296 56.0403 114.375C55.8658 114.534 55.7111 114.713 55.5492 114.884C55.2434 115.244 54.9535 115.62 54.6796 116.012C54.408 116.411 54.128 116.817 53.8353 117.217C53.5362 117.622 53.2018 117.999 52.8363 118.345C52.4697 118.689 52.0748 119.001 51.6557 119.278C51.2674 119.549 50.9208 119.876 50.627 120.247C50.3271 120.626 50.0557 121.026 49.8151 121.446C49.5736 121.868 49.3538 122.302 49.1566 122.747C48.9652 123.195 48.7752 123.644 48.6205 124.106C48.3009 125.027 48.0368 125.967 47.8296 126.919C47.6186 127.87 47.4596 128.831 47.3231 129.793C47.1866 130.754 47.0839 131.722 47.0191 132.69C46.9544 133.659 46.9249 134.628 46.9403 135.596C46.9516 136.081 46.9628 136.565 46.9882 137.049C47.0135 137.532 47.0529 138.012 47.0867 138.504C47.2175 140.46 47.34 142.415 47.4314 144.374C47.5229 146.332 47.5918 148.299 47.6256 150.259H47.5553C47.2935 148.313 47.0712 146.366 46.8714 144.416C46.6716 142.466 46.4957 140.522 46.3254 138.57C46.248 137.596 46.1847 136.596 46.1931 135.609C46.2016 134.622 46.2494 133.635 46.3437 132.648C46.438 131.661 46.5688 130.683 46.7532 129.712C46.9375 128.742 47.1753 127.782 47.4441 126.835C47.7129 125.887 48.0351 124.955 48.3841 124.034C48.7307 123.112 49.1378 122.214 49.6026 121.346C49.8365 120.906 50.0983 120.482 50.3864 120.077C50.6766 119.66 51.0238 119.286 51.4179 118.967C52.1741 118.381 52.8304 117.677 53.3611 116.88C53.6355 116.487 53.8874 116.069 54.1688 115.662C54.4487 115.244 54.7566 114.845 55.0905 114.469C55.2678 114.287 55.4367 114.098 55.628 113.932C55.7223 113.847 55.811 113.757 55.9095 113.678L56.205 113.438C56.3024 113.358 56.4038 113.284 56.5089 113.214L56.8199 113L57.4165 112.592C58.9893 111.461 60.3785 110.093 61.5352 108.537L61.5957 108.568Z" fill="#A4B5DD"/>
<path d="M50.9852 140.482L50.8445 141.705L49.6358 151.941C49.6137 152.128 49.5238 152.301 49.3832 152.426C49.2426 152.551 49.0611 152.62 48.8731 152.619H41.5855C41.3977 152.619 41.2165 152.55 41.076 152.425C40.9356 152.3 40.8455 152.128 40.8228 151.941L40.4302 148.612L39.4692 140.481C39.4564 140.373 39.4667 140.264 39.4992 140.16C39.5317 140.056 39.5858 139.961 39.6579 139.88C39.73 139.798 39.8184 139.734 39.9173 139.689C40.0162 139.645 40.1234 139.622 40.2318 139.622H50.2226C50.3311 139.622 50.4384 139.645 50.5375 139.689C50.6365 139.734 50.725 139.799 50.7971 139.88C50.8692 139.961 50.9232 140.057 50.9557 140.161C50.9881 140.265 50.9982 140.374 50.9852 140.482Z" fill="#B2C2E3"/>
<path opacity="0.47" d="M50.2268 146.39C50.2268 146.39 49.6498 146.39 48.579 146.333C46.7967 146.238 45.1055 145.514 43.8038 144.29C42.5021 143.067 41.6736 141.422 41.4645 139.646V139.623H40.2318C40.1234 139.623 40.0162 139.646 39.9173 139.69C39.8184 139.735 39.73 139.799 39.6579 139.881C39.5858 139.962 39.5317 140.057 39.4992 140.161C39.4667 140.265 39.4564 140.374 39.4692 140.482L40.4302 148.613L40.8228 151.942C40.8455 152.129 40.9356 152.301 41.076 152.426C41.2165 152.551 41.3977 152.62 41.5855 152.62H48.8689C49.0569 152.621 49.2384 152.552 49.379 152.427C49.5196 152.302 49.6095 152.129 49.6316 151.942L50.2873 146.387C50.2672 146.389 50.247 146.39 50.2268 146.39Z" fill="url(#paint0_linear_525_6367)"/>
<path opacity="0.49" d="M46.5855 139.623L41.9039 152.62H41.5859C41.3981 152.62 41.2169 152.551 41.0764 152.426C40.936 152.301 40.8459 152.129 40.8233 151.942L40.4307 148.613L43.6671 139.623H46.5855Z" fill="white"/>
<path opacity="0.49" d="M50.9856 140.482L50.8449 141.705L46.9148 152.619H42.8594L47.5409 139.622H50.223C50.3315 139.622 50.4388 139.645 50.5379 139.689C50.6369 139.734 50.7254 139.799 50.7975 139.88C50.8696 139.961 50.9236 140.057 50.9561 140.161C50.9885 140.265 50.9986 140.374 50.9856 140.482Z" fill="white"/>
<path d="M127.007 60.6943H86.3401C84.3973 60.6943 82.8223 62.2725 82.8223 64.2193V149.097C82.8223 151.044 84.3973 152.622 86.3401 152.622H127.007C128.949 152.622 130.524 151.044 130.524 149.097V64.2193C130.524 62.2725 128.949 60.6943 127.007 60.6943Z" fill="#8EB8E2"/>
<path d="M122.74 60.6943H82.0735C80.1307 60.6943 78.5557 62.2725 78.5557 64.2193V149.097C78.5557 151.044 80.1307 152.622 82.0735 152.622H122.74C124.683 152.622 126.258 151.044 126.258 149.097V64.2193C126.258 62.2725 124.683 60.6943 122.74 60.6943Z" fill="#3E5FAB"/>
<path d="M122.916 69.2432H81.8838V141.266H122.916V69.2432Z" fill="#8EB8E2"/>
<path opacity="0.47" d="M122.914 93.3643C117.763 99.612 111.017 105.69 101.132 108.227C93.1657 110.272 87.2008 108.98 81.8818 107.743V141.266H122.914V93.3643Z" fill="url(#paint1_linear_525_6367)"/>
<path d="M95.4072 60.6943H109.389V62.4512C109.389 63.0323 109.158 63.5896 108.748 64.0006C108.338 64.4115 107.782 64.6423 107.202 64.6423H97.5953C97.0154 64.6423 96.4592 64.4115 96.0491 64.0006C95.639 63.5896 95.4086 63.0323 95.4086 62.4512V60.6943H95.4072Z" fill="#324E87"/>
<path d="M114.483 65.7968C115.12 65.7968 115.637 65.2791 115.637 64.6406C115.637 64.002 115.12 63.4844 114.483 63.4844C113.846 63.4844 113.329 64.002 113.329 64.6406C113.329 65.2791 113.846 65.7968 114.483 65.7968Z" fill="#324E87"/>
<path d="M102.398 149.449C104.092 149.449 105.464 148.074 105.464 146.377C105.464 144.68 104.092 143.305 102.398 143.305C100.705 143.305 99.332 144.68 99.332 146.377C99.332 148.074 100.705 149.449 102.398 149.449Z" stroke="#8EB8E2" stroke-width="5" stroke-miterlimit="10"/>
<path d="M111.556 85.2725C111.556 91.2072 107.259 94.6363 101.958 94.6363C96.6573 94.6363 92.3613 91.2072 92.3613 85.2725C92.3613 79.3378 96.6573 74.5283 101.958 74.5283C107.259 74.5283 111.556 79.335 111.556 85.2725Z" fill="#3E5FAB"/>
<path d="M103.555 84.6343C103.853 84.3619 104.091 84.0297 104.253 83.6593C104.414 83.2888 104.496 82.8884 104.494 82.4841C104.494 80.9331 103.306 79.6641 101.84 79.6641C100.374 79.6641 99.1845 80.926 99.1845 82.4841C99.1817 82.9043 99.2709 83.32 99.4457 83.7019C99.6204 84.0839 99.8766 84.4228 100.196 84.6949C99.3239 85.0463 98.5764 85.651 98.0498 86.4315C97.5232 87.2119 97.2416 88.1323 97.2412 89.0744V90.0614H106.669V89.0744C106.669 88.1033 106.369 87.1559 105.812 86.3613C105.255 85.5668 104.467 84.9637 103.555 84.6343Z" fill="#A8B9DF"/>
<path d="M100.321 118.096H86.4102V127.196H100.321V118.096Z" fill="#C4CFE6"/>
<path d="M119.67 118.096H105.759V127.196H119.67V118.096Z" fill="#C4CFE6"/>
<path opacity="0.47" d="M86.3145 131.028H119.671" stroke="url(#paint2_linear_525_6367)" stroke-width="7" stroke-miterlimit="10"/>
<path opacity="0.47" d="M86.3145 134.86H119.671" stroke="url(#paint3_linear_525_6367)" stroke-width="7" stroke-miterlimit="10"/>
<path opacity="0.47" d="M86.3145 110.913H119.671" stroke="url(#paint4_linear_525_6367)" stroke-width="7" stroke-miterlimit="10"/>
<path opacity="0.47" d="M86.3145 114.745H119.671" stroke="url(#paint5_linear_525_6367)" stroke-width="7" stroke-miterlimit="10"/>
<path opacity="0.47" d="M86.3145 103.248H119.671" stroke="url(#paint6_linear_525_6367)" stroke-width="7" stroke-miterlimit="10"/>
<path opacity="0.47" d="M86.3145 99.416H119.671" stroke="url(#paint7_linear_525_6367)" stroke-width="7" stroke-miterlimit="10"/>
<path opacity="0.47" d="M86.3145 107.08H119.671" stroke="url(#paint8_linear_525_6367)" stroke-width="7" stroke-miterlimit="10"/>
<path opacity="0.25" d="M110.667 69.2422L88.0668 141.266H81.8838V126.492L99.8488 69.2422H110.667Z" fill="white"/>
<path opacity="0.25" d="M91.6885 141.266L114.289 69.2432H122.916V87.8848L106.165 141.266H91.6885Z" fill="white"/>
<path d="M128.481 74.5234V84.3131" stroke="#324E87" stroke-width="5" stroke-miterlimit="10"/>
<path opacity="0.47" d="M65.5001 59.71H43.2939V71.6992H65.5001V59.71Z" fill="url(#paint9_linear_525_6367)"/>
<path d="M50.0527 66.0608C50.0527 69.129 52.2732 70.9014 55.0129 70.9014C57.7526 70.9014 59.9745 69.129 59.9745 66.0608C59.9745 62.9927 57.7526 60.5068 55.0129 60.5068C52.2732 60.5068 50.0527 62.9941 50.0527 66.0608Z" fill="#3E5FAB"/>
<path d="M54.1878 65.7336C54.0337 65.5929 53.9108 65.4212 53.8271 65.2298C53.7435 65.0384 53.701 64.8315 53.7023 64.6225C53.7023 63.8174 54.3158 63.166 55.0743 63.166C55.8327 63.166 56.4462 63.8174 56.4462 64.6225C56.4479 64.8396 56.402 65.0544 56.3118 65.2517C56.2216 65.449 56.0893 65.6241 55.9242 65.7646C56.3747 65.9468 56.7606 66.2597 57.0324 66.6631C57.3042 67.0666 57.4495 67.5423 57.4495 68.0291V68.5423H52.5752V68.0291C52.5753 67.5267 52.7303 67.0365 53.0189 66.6256C53.3076 66.2148 53.7158 65.9032 54.1878 65.7336Z" fill="white"/>
<path d="M62.1276 68.7227H57.8203" stroke="#E7EBF6" stroke-width="8" stroke-miterlimit="10"/>
<path d="M59.9746 70.88V66.5654" stroke="#E7EBF6" stroke-width="8" stroke-miterlimit="10"/>
<path opacity="0.42" d="M60.3726 59.71L56.8997 71.6978H50.7393L54.2121 59.71H60.3726Z" fill="white"/>
<path opacity="0.42" d="M64.1451 59.71L60.6723 71.6978H57.8721L61.3449 59.71H64.1451Z" fill="white"/>
<path opacity="0.51" d="M178.602 69.2441H134.695V85.696H178.602V69.2441Z" fill="url(#paint10_linear_525_6367)"/>
<path d="M147.78 78.173C147.78 81.729 145.205 83.7848 142.029 83.7848C138.853 83.7848 136.278 81.729 136.278 78.173C136.278 74.617 138.849 71.7363 142.025 71.7363C145.201 71.7363 147.78 74.6184 147.78 78.173Z" fill="#3E5FAB"/>
<path d="M142.982 77.7996C143.16 77.6365 143.302 77.4376 143.399 77.2159C143.496 76.9941 143.546 76.7544 143.544 76.5123C143.544 75.5789 142.832 74.8203 141.953 74.8203C141.073 74.8203 140.363 75.5761 140.363 76.5123C140.361 76.7639 140.415 77.0127 140.519 77.2414C140.624 77.4702 140.777 77.6732 140.968 77.8363C140.446 78.0467 139.999 78.4082 139.683 78.8746C139.368 79.341 139.198 79.8912 139.196 80.4547V81.0497H144.847V80.4547C144.846 79.8737 144.666 79.3073 144.332 78.8323C143.998 78.3573 143.527 77.9968 142.982 77.7996Z" fill="white"/>
<path opacity="0.47" d="M152.229 75.5127H174.176" stroke="url(#paint11_linear_525_6367)" stroke-width="7" stroke-miterlimit="10"/>
<path opacity="0.47" d="M152.229 80.3613H174.176" stroke="url(#paint12_linear_525_6367)" stroke-width="7" stroke-miterlimit="10"/>
<path opacity="0.42" d="M159.211 69.2422L153.392 85.6955H147.311L153.129 69.2422H159.211Z" fill="white"/>
<path opacity="0.42" d="M172.324 69.2422L166.507 85.6955H156.188L162.006 69.2422H172.324Z" fill="white"/>
<path d="M79.3833 149.571C80.0804 149.571 80.6455 149.004 80.6455 148.306C80.6455 147.607 80.0804 147.041 79.3833 147.041C78.6862 147.041 78.1211 147.607 78.1211 148.306C78.1211 149.004 78.6862 149.571 79.3833 149.571Z" fill="#30302F"/>
<path d="M79.6041 151.024H80.3991V150.601H79.6041C79.4634 150.601 79.3831 150.531 79.3817 150.507L79.0145 145.087C79.0167 145.077 79.0216 145.068 79.0285 145.061C79.0864 145.012 79.1609 144.987 79.2368 144.991H80.568V144.568H79.2368C79.1414 144.565 79.0464 144.582 78.9576 144.617C78.8688 144.652 78.7881 144.705 78.7204 144.772C78.6769 144.818 78.6431 144.871 78.6211 144.93C78.5991 144.989 78.5893 145.052 78.5923 145.115L78.9596 150.535C78.9793 150.814 79.2523 151.024 79.6041 151.024Z" fill="#30302F"/>
<path d="M79.8801 148.161L84.1592 148.054L81.0114 130.766L80.5696 111.612L73.5732 107.188L79.4748 130.591L79.8801 148.161Z" fill="#EE465E"/>
<path d="M81.0642 113.088H80.5745C79.7236 113.088 78.9076 112.749 78.3059 112.146C77.7042 111.543 77.3662 110.726 77.3662 109.873V109.382C77.3662 109.27 77.4107 109.163 77.4899 109.083C77.569 109.004 77.6764 108.959 77.7884 108.959H81.0642C81.1761 108.959 81.2835 109.004 81.3627 109.083C81.4418 109.163 81.4863 109.27 81.4863 109.382V112.665C81.4863 112.777 81.4418 112.885 81.3627 112.964C81.2835 113.043 81.1761 113.088 81.0642 113.088Z" fill="#4E4F50"/>
<path d="M80.8601 110.708H81.0262C81.0867 110.708 81.1466 110.696 81.2025 110.673C81.2584 110.65 81.3092 110.616 81.352 110.573C81.3947 110.531 81.4286 110.48 81.4517 110.424C81.4747 110.368 81.4865 110.308 81.4863 110.247V111.357C81.4865 111.417 81.4747 111.477 81.4517 111.533C81.4286 111.589 81.3947 111.64 81.352 111.683C81.3092 111.726 81.2584 111.76 81.2025 111.783C81.1466 111.806 81.0867 111.818 81.0262 111.818H80.8601C80.4013 111.818 79.947 111.727 79.5231 111.551C79.0992 111.375 78.714 111.117 78.3896 110.792C78.0651 110.467 77.8078 110.081 77.6322 109.656C77.4566 109.232 77.3662 108.776 77.3662 108.317V108.15C77.3666 108.065 77.391 107.981 77.4366 107.909C77.598 108.7 78.027 109.41 78.6508 109.92C79.2746 110.43 80.055 110.708 80.8601 110.708Z" fill="#79797A"/>
<path d="M79.8809 148.053V152.62H89.9462V151.069C89.9459 150.789 89.8359 150.519 89.6397 150.318C89.4435 150.117 89.1768 150.001 88.8964 149.995C87.4288 149.956 84.8636 149.651 84.16 148.048H79.8823L79.8809 148.053Z" fill="#C23E56"/>
<path d="M78.4629 116.541C78.5529 118.831 78.726 121.112 78.9272 123.389C79.0215 124.529 79.1439 125.665 79.2537 126.803L79.6266 130.211C79.8864 132.482 80.1805 134.749 80.5089 137.011C80.8339 139.267 81.1885 141.535 81.6346 143.779C81.5459 141.488 81.3729 139.207 81.1702 136.93C80.9676 134.652 80.7368 132.378 80.4667 130.108L80.0445 126.706C79.8897 125.578 79.749 124.438 79.5788 123.308C79.2523 121.05 78.9005 118.79 78.4629 116.541Z" fill="#4E4F50"/>
<path d="M79.9061 152.62C79.9276 152.296 80.0745 151.992 80.3156 151.774C80.5457 151.565 80.8492 151.455 81.1599 151.468C81.4605 151.479 81.7444 151.61 81.9493 151.831C82.1493 152.045 82.2574 152.329 82.2504 152.622H82.5783C82.5876 152.335 82.7071 152.063 82.9118 151.863C83.1139 151.669 83.3841 151.561 83.6642 151.564C83.9444 151.567 84.2123 151.68 84.4104 151.879C84.6055 152.076 84.7143 152.344 84.7129 152.622H85.1351C85.1369 152.414 85.1995 152.211 85.3152 152.038C85.4309 151.865 85.5946 151.73 85.7861 151.649C85.9776 151.569 86.1885 151.546 86.3926 151.584C86.5968 151.623 86.7853 151.72 86.9348 151.864C87.1399 152.064 87.2595 152.335 87.2683 152.622H87.5976C87.5916 152.329 87.6996 152.045 87.8987 151.831C88.1039 151.61 88.3876 151.48 88.6881 151.468C88.9986 151.456 89.3016 151.566 89.5324 151.774C89.7719 151.993 89.9185 152.296 89.9419 152.62C89.9522 152.451 89.9286 152.282 89.8726 152.122C89.8165 151.962 89.7291 151.815 89.6154 151.69C89.4959 151.561 89.3524 151.458 89.193 151.386C89.0337 151.313 88.8616 151.273 88.6867 151.267C88.506 151.261 88.3261 151.291 88.157 151.355C87.988 151.419 87.8333 151.516 87.7017 151.64C87.5677 151.768 87.4602 151.921 87.3856 152.09C87.311 152.26 87.2706 152.442 87.2669 152.627H87.5962C87.6006 152.439 87.5674 152.252 87.4985 152.077C87.4296 151.902 87.3265 151.742 87.1951 151.608C87.0623 151.47 86.9035 151.361 86.7279 151.285C86.5523 151.21 86.3635 151.17 86.1726 151.169C85.9816 151.168 85.7922 151.204 85.6155 151.277C85.4388 151.35 85.2784 151.457 85.1435 151.592C84.8688 151.867 84.7135 152.239 84.7115 152.627H85.1337C85.1316 152.238 84.9757 151.866 84.7002 151.592C84.5652 151.457 84.4048 151.351 84.2282 151.278C84.0517 151.206 83.8626 151.169 83.6719 151.171C83.4812 151.172 83.2927 151.212 83.1173 151.287C82.9419 151.362 82.783 151.471 82.65 151.608C82.5187 151.742 82.4155 151.902 82.3467 152.077C82.2778 152.252 82.2446 152.439 82.249 152.627H82.5769C82.5734 152.442 82.5333 152.26 82.4589 152.09C82.3845 151.921 82.2773 151.768 82.1435 151.64C81.8776 151.39 81.5233 151.255 81.1585 151.267C80.9835 151.273 80.8115 151.313 80.6521 151.386C80.4928 151.458 80.3493 151.561 80.2298 151.69C80.1161 151.815 80.0289 151.962 79.9733 152.122C79.9177 152.282 79.8948 152.451 79.9061 152.62Z" fill="#30302F"/>
<path d="M57.0161 145.685C57.7132 145.685 58.2783 145.119 58.2783 144.42C58.2783 143.722 57.7132 143.155 57.0161 143.155C56.319 143.155 55.7539 143.722 55.7539 144.42C55.7539 145.119 56.319 145.685 57.0161 145.685Z" fill="#30302F"/>
<path d="M56.8575 147.319L57.0263 146.931L56.2988 146.607C56.1694 146.55 56.1244 146.454 56.1328 146.431L57.9621 141.319C57.9678 141.311 57.9763 141.305 57.986 141.302C58.0217 141.291 58.0595 141.286 58.0969 141.289C58.1344 141.293 58.1708 141.303 58.2041 141.321L59.4241 141.856L59.593 141.469L58.3744 140.933C58.2879 140.892 58.1941 140.869 58.0985 140.866C58.0029 140.862 57.9077 140.878 57.8186 140.913C57.7606 140.937 57.7081 140.973 57.6646 141.018C57.621 141.063 57.5872 141.117 57.5653 141.175L55.736 146.288C55.6417 146.55 55.8106 146.852 56.1286 146.993L56.8575 147.319Z" fill="#30302F"/>
<path d="M57.5283 144.488L61.4922 146.11L65.535 129.011L72.8043 111.291L68.1677 104.424L64.1968 128.232L57.5283 144.488Z" fill="#EE465E"/>
<path d="M72.669 112.841L72.2205 112.644C71.4412 112.302 70.8295 111.663 70.52 110.869C70.2105 110.075 70.2286 109.19 70.5702 108.409L70.7668 107.96C70.8117 107.857 70.8956 107.776 70.9999 107.735C71.1041 107.695 71.2203 107.697 71.3229 107.742L74.3231 109.06C74.4257 109.105 74.5062 109.189 74.5469 109.293C74.5876 109.398 74.5852 109.514 74.5403 109.617L73.2251 112.623C73.1802 112.726 73.0963 112.807 72.9921 112.848C72.8878 112.888 72.7716 112.886 72.669 112.841Z" fill="#4E4F50"/>
<path d="M73.4332 110.58L73.5852 110.646C73.6404 110.671 73.7 110.684 73.7603 110.686C73.8207 110.687 73.8808 110.676 73.937 110.654C73.9933 110.632 74.0446 110.599 74.0881 110.557C74.1316 110.515 74.1663 110.465 74.1903 110.41L73.747 111.423C73.698 111.535 73.6068 111.623 73.4933 111.667C73.3799 111.711 73.2536 111.709 73.142 111.66L72.99 111.593C72.1428 111.22 71.4777 110.525 71.1406 109.662C70.8035 108.798 70.8218 107.836 71.1917 106.986L71.2592 106.834C71.2938 106.756 71.3493 106.689 71.4196 106.641C71.2514 107.429 71.3598 108.252 71.7267 108.97C72.0935 109.687 72.6963 110.256 73.4332 110.58Z" fill="#79797A"/>
<path d="M57.5734 144.389L55.7441 148.572L64.9609 152.62L65.5801 151.21C65.6935 150.952 65.7015 150.66 65.6023 150.397C65.5031 150.133 65.3047 149.919 65.0496 149.8C63.7212 149.173 61.4937 147.861 61.4923 146.112L57.5734 144.389Z" fill="#C23E56"/>
<path d="M68.9003 114.956C68.0644 117.091 67.3102 119.249 66.5827 121.417C66.2112 122.498 65.8693 123.588 65.5133 124.674L64.4889 127.945C63.8182 130.13 63.1793 132.325 62.5724 134.528C61.9645 136.732 61.3833 138.944 60.8838 141.182C61.7196 139.047 62.4753 136.89 63.2028 134.723C63.9303 132.556 64.6296 130.379 65.2952 128.193L66.2802 124.908C66.5926 123.808 66.919 122.714 67.2159 121.608C67.8182 119.406 68.3993 117.194 68.9003 114.956Z" fill="#4E4F50"/>
<path d="M55.7666 148.581C55.9177 148.293 56.1736 148.074 56.4814 147.969C56.777 147.87 57.0995 147.892 57.3792 148.03C57.6497 148.161 57.8572 148.395 57.9561 148.68C58.0538 148.956 58.0391 149.26 57.9153 149.526L58.215 149.657C58.3381 149.397 58.557 149.195 58.8257 149.093C59.0208 149.018 59.2335 149.003 59.437 149.05C59.6406 149.096 59.826 149.202 59.9698 149.353C60.1136 149.505 60.2094 149.696 60.2452 149.902C60.281 150.108 60.2552 150.32 60.171 150.511L60.5565 150.681C60.6107 150.553 60.6894 150.438 60.7882 150.341C60.8869 150.244 61.0038 150.168 61.132 150.117C61.393 150.015 61.6833 150.02 61.9408 150.13C62.1983 150.24 62.4025 150.447 62.5096 150.706C62.6159 150.972 62.6159 151.268 62.5096 151.534L62.8122 151.666C62.9227 151.395 63.1349 151.179 63.4032 151.063C63.6793 150.943 63.9915 150.938 64.2714 151.049C64.5621 151.161 64.7968 151.384 64.9243 151.669C65.0569 151.966 65.0695 152.303 64.9595 152.609C65.0377 152.458 65.0846 152.293 65.0971 152.123C65.1097 151.954 65.0878 151.783 65.0326 151.622C64.9761 151.456 64.8872 151.302 64.771 151.17C64.6548 151.038 64.5137 150.931 64.3558 150.854C64.0259 150.697 63.6473 150.678 63.3033 150.8C63.128 150.865 62.9674 150.964 62.8307 151.091C62.6939 151.218 62.5838 151.372 62.5068 151.542L62.8093 151.675C62.8888 151.504 62.9334 151.319 62.9404 151.131C62.9474 150.943 62.9167 150.755 62.8502 150.579C62.7838 150.399 62.6824 150.235 62.552 150.095C62.4215 149.955 62.2646 149.842 62.0903 149.763C61.9161 149.685 61.7279 149.641 61.5368 149.636C61.3458 149.631 61.1555 149.664 60.9773 149.733C60.6154 149.873 60.3239 150.152 60.1667 150.507L60.5523 150.676C60.6287 150.5 60.6697 150.31 60.6728 150.118C60.6759 149.925 60.6412 149.734 60.5706 149.555C60.5011 149.377 60.3971 149.215 60.2644 149.077C60.1317 148.94 59.9731 148.83 59.7978 148.755C59.6225 148.68 59.4339 148.64 59.2431 148.638C59.0524 148.636 58.8631 148.672 58.6864 148.745C58.5123 148.815 58.3539 148.92 58.2208 149.052C58.0876 149.185 57.9823 149.343 57.9111 149.517L58.2108 149.648C58.2822 149.478 58.319 149.294 58.319 149.109C58.319 148.924 58.2822 148.741 58.2108 148.57C58.1399 148.403 58.0369 148.252 57.9077 148.126C57.7785 147.999 57.6257 147.9 57.458 147.832C57.2949 147.768 57.1206 147.736 56.9452 147.74C56.7698 147.743 56.5969 147.781 56.4364 147.852C56.2817 147.922 56.1426 148.023 56.0276 148.148C55.9125 148.274 55.8237 148.421 55.7666 148.581Z" fill="#30302F"/>
<path d="M64.9743 130.899C66.1229 130.899 67.054 129.966 67.054 128.815C67.054 127.664 66.1229 126.731 64.9743 126.731C63.8257 126.731 62.8945 127.664 62.8945 128.815C62.8945 129.966 63.8257 130.899 64.9743 130.899Z" fill="#4E4F50"/>
<path d="M64.9742 130.007C65.6309 130.007 66.1632 129.473 66.1632 128.815C66.1632 128.157 65.6309 127.624 64.9742 127.624C64.3175 127.624 63.7852 128.157 63.7852 128.815C63.7852 129.473 64.3175 130.007 64.9742 130.007Z" fill="#EE465E"/>
<path d="M80.0446 132.897C81.1932 132.897 82.1244 131.964 82.1244 130.813C82.1244 129.663 81.1932 128.729 80.0446 128.729C78.896 128.729 77.9648 129.663 77.9648 130.813C77.9648 131.964 78.896 132.897 80.0446 132.897Z" fill="#4E4F50"/>
<path d="M80.0445 132.005C80.7012 132.005 81.2335 131.472 81.2335 130.814C81.2335 130.156 80.7012 129.622 80.0445 129.622C79.3878 129.622 78.8555 130.156 78.8555 130.814C78.8555 131.472 79.3878 132.005 80.0445 132.005Z" fill="#EE465E"/>
<path d="M67.5881 109.665C71.5622 110.616 75.6996 110.652 79.6896 109.771C79.6411 108.92 79.7237 108.067 79.9344 107.241C80.2481 106.038 80.8249 104.919 81.623 103.966C81.6603 103.921 81.684 103.866 81.6914 103.809C81.6988 103.751 81.6895 103.692 81.6646 103.639C81.6398 103.587 81.6004 103.542 81.5512 103.511C81.5019 103.48 81.4448 103.464 81.3866 103.464H65.8658C65.8098 103.464 65.7548 103.479 65.7069 103.508C65.6589 103.537 65.6199 103.579 65.5941 103.629C65.5682 103.678 65.5565 103.734 65.5603 103.79C65.564 103.846 65.5831 103.9 65.6153 103.946C66.3288 104.984 66.8652 106.133 67.2026 107.347C67.4124 108.104 67.5416 108.881 67.5881 109.665Z" fill="#30302F"/>
<path d="M67.5881 109.665C71.5622 110.616 75.6996 110.652 79.6896 109.771C79.6411 108.92 79.7237 108.067 79.9344 107.241C80.2481 106.038 80.8249 104.919 81.623 103.966C81.6603 103.921 81.684 103.866 81.6914 103.809C81.6988 103.751 81.6895 103.692 81.6646 103.639C81.6398 103.587 81.6004 103.542 81.5512 103.511C81.5019 103.48 81.4448 103.464 81.3866 103.464H65.8658C65.8098 103.464 65.7548 103.479 65.7069 103.508C65.6589 103.537 65.6199 103.579 65.5941 103.629C65.5682 103.678 65.5565 103.734 65.5603 103.79C65.564 103.846 65.5831 103.9 65.6153 103.946C66.3288 104.984 66.8652 106.133 67.2026 107.347C67.4124 108.104 67.5416 108.881 67.5881 109.665Z" fill="#EE465E"/>
<path d="M67.2028 107.344C67.1789 107.254 67.1508 107.169 67.124 107.082C68.2005 107.653 69.4134 107.688 71.9365 107.57C74.2385 107.46 76.1044 105.301 77.0767 103.461H81.3446C81.3362 103.76 81.3249 104.057 81.3108 104.356C80.1481 105.911 79.5723 107.828 79.6856 109.768C75.6956 110.649 71.5582 110.613 67.5842 109.662C67.539 108.878 67.4112 108.101 67.2028 107.344Z" fill="#C23E56"/>
<path d="M71.2628 107.094C71.9527 106.557 72.7949 106.255 73.6678 106.229C74.5408 106.204 75.3991 106.457 76.1188 106.953L76.4509 107.181C76.9441 107.524 77.5165 107.735 78.1138 107.795C78.7112 107.854 79.3138 107.76 79.8646 107.521C79.8379 107.641 79.8154 107.761 79.7943 107.876C79.2159 108.093 78.5939 108.165 77.9813 108.088C77.3688 108.012 76.7839 107.787 76.2764 107.435L75.9444 107.207C75.2786 106.747 74.4841 106.511 73.6757 106.534C72.8674 106.557 72.0874 106.837 71.4485 107.334C70.8631 107.787 70.1598 108.062 69.4226 108.125C68.6854 108.188 67.9456 108.037 67.2918 107.69C67.2637 107.575 67.2341 107.458 67.2004 107.339C67.2004 107.315 67.1863 107.294 67.1807 107.272C67.7966 107.666 68.5193 107.861 69.2498 107.828C69.9802 107.796 70.6828 107.538 71.2614 107.09L71.2628 107.094Z" fill="#545554"/>
<path d="M74.7802 106.356C75.2583 106.475 75.7114 106.679 76.1183 106.957L76.4504 107.186C76.9436 107.528 77.516 107.74 78.1133 107.799C78.7107 107.858 79.3133 107.764 79.8642 107.525C79.8374 107.645 79.8149 107.765 79.7938 107.881C79.2154 108.097 78.5934 108.169 77.9808 108.093C77.3683 108.016 76.7834 107.792 76.2759 107.439L75.9439 107.211C75.5 106.906 74.997 106.699 74.4678 106.602C74.5719 106.523 74.6774 106.441 74.7802 106.356Z" fill="#484748"/>
<path d="M69.0916 107.831C69.5023 107.83 69.9098 107.758 70.2961 107.618C70.5311 107.618 70.7815 107.61 71.0489 107.601C70.4828 107.938 69.8399 108.123 69.182 108.138C68.524 108.154 67.8731 108 67.2918 107.69C67.2637 107.575 67.2341 107.458 67.2004 107.339C67.2004 107.315 67.1863 107.294 67.1807 107.271C67.7516 107.636 68.4144 107.83 69.0916 107.831Z" fill="#484748"/>
<path d="M76.7197 103.768C75.58 103.538 74.4257 103.388 73.2652 103.319C72.117 103.242 70.9701 103.221 69.8233 103.236C69.5419 103.236 69.2506 103.245 68.9635 103.256C68.6765 103.267 68.3908 103.274 68.1038 103.291C67.8167 103.308 67.5311 103.321 67.2454 103.343L66.8148 103.374L66.6009 103.393H66.5292C66.478 103.397 66.4272 103.405 66.3772 103.417C66.271 103.441 66.1699 103.485 66.0789 103.545C65.9012 103.663 65.7719 103.841 65.7145 104.047C65.6568 104.249 65.6733 104.465 65.7609 104.656C65.7815 104.702 65.8065 104.745 65.8355 104.786L65.8538 104.813L65.8622 104.824L65.8791 104.844L65.948 104.924L66.0888 105.082C66.2675 105.292 66.4349 105.494 66.5897 105.715C66.9035 106.153 67.1737 106.674 67.5029 107.177C67.5258 106.574 67.4545 105.972 67.2919 105.391C67.2022 105.092 67.0859 104.802 66.9443 104.525L66.8416 104.323L66.7881 104.226L66.7754 104.201L66.7684 104.189C66.777 104.2 66.785 104.211 66.7923 104.223C66.8294 104.281 66.8435 104.351 66.8318 104.418C66.8201 104.486 66.7834 104.547 66.729 104.588C66.6989 104.611 66.6651 104.628 66.6291 104.639C66.6143 104.643 66.5992 104.646 66.5841 104.649C66.5714 104.649 66.5841 104.649 66.5939 104.649H66.6207L66.8359 104.657L67.2665 104.667C67.548 104.674 67.8406 104.676 68.1277 104.676C68.4148 104.676 68.7032 104.676 68.9903 104.669C69.2773 104.662 69.5644 104.655 69.8514 104.645C70.9983 104.602 72.1465 104.524 73.2919 104.39C74.4475 104.262 75.5929 104.054 76.7197 103.768Z" fill="#EA5F7A"/>
<path d="M73.581 110.683C71.5404 110.66 69.5087 110.41 67.5232 109.937L67.3206 109.887L67.3079 109.679C67.1876 107.678 66.5217 105.75 65.383 104.102C65.3223 104.014 65.2868 103.911 65.2804 103.804C65.2739 103.696 65.2968 103.59 65.3464 103.495C65.3961 103.4 65.4707 103.32 65.5622 103.264C65.6537 103.209 65.7586 103.179 65.8656 103.179H81.3822C81.4938 103.179 81.6032 103.21 81.6974 103.27C81.7917 103.33 81.8669 103.416 81.9144 103.517C81.9618 103.618 81.9794 103.731 81.9651 103.842C81.9509 103.953 81.9053 104.057 81.8339 104.143C80.5169 105.704 79.8485 107.712 79.9666 109.752L79.9793 109.992L79.7457 110.043C77.8144 110.469 75.8428 110.684 73.8652 110.684L73.581 110.683ZM79.6584 107.168C79.9808 105.924 80.5765 104.767 81.4019 103.784C81.4048 103.78 81.4063 103.776 81.4063 103.772C81.4063 103.767 81.4048 103.763 81.4019 103.76C81.4006 103.755 81.3976 103.751 81.3935 103.748C81.3894 103.745 81.3844 103.744 81.3794 103.744H65.8656C65.8612 103.744 65.8568 103.745 65.853 103.747C65.8493 103.749 65.8463 103.753 65.8445 103.757C65.8419 103.761 65.8405 103.766 65.8405 103.771C65.8405 103.776 65.8419 103.781 65.8445 103.785C67.0004 105.458 67.6937 107.407 67.8539 109.435C71.6466 110.311 75.5843 110.348 79.3925 109.542C79.3697 108.742 79.4593 107.943 79.6584 107.168Z" fill="#EE465E"/>
<path d="M75.1611 83.291H72.3271V86.9401H75.1611V83.291Z" fill="#474748"/>
<path d="M77.3651 85.0662H70.1225C70.0736 85.0663 70.0252 85.0559 69.9807 85.0356C69.9361 85.0152 69.8965 84.9855 69.8644 84.9485C69.8324 84.9114 69.8087 84.8678 69.7949 84.8208C69.7812 84.7737 69.7778 84.7242 69.7848 84.6757L71.389 73.8046C71.4005 73.7235 71.4409 73.6493 71.5027 73.5956C71.5645 73.542 71.6435 73.5126 71.7253 73.5127H75.7624C75.8442 73.5128 75.9233 73.5423 75.9853 73.5959C76.0472 73.6494 76.088 73.7235 76.1001 73.8046L77.7042 84.6757C77.7113 84.7243 77.7079 84.7739 77.694 84.8211C77.6802 84.8683 77.6564 84.9119 77.6242 84.949C77.592 84.9861 77.5522 85.0158 77.5074 85.036C77.4627 85.0562 77.4142 85.0665 77.3651 85.0662Z" fill="#EE465E"/>
<path d="M77.3651 85.0662C77.4141 85.0663 77.4625 85.0559 77.507 85.0356C77.5515 85.0152 77.5912 84.9855 77.6232 84.9485C77.6553 84.9114 77.679 84.8678 77.6927 84.8208C77.7065 84.7737 77.7099 84.7242 77.7028 84.6757L77.3679 82.407C75.4345 81.7147 73.9246 79.6829 73.1831 78.0783C72.806 77.2605 72.26 75.1793 71.835 73.5127H71.7253C71.6435 73.5126 71.5645 73.542 71.5027 73.5956C71.4409 73.6493 71.4005 73.7235 71.389 73.8046L69.7848 84.6757C69.7778 84.7242 69.7812 84.7737 69.7949 84.8208C69.8087 84.8678 69.8324 84.9114 69.8644 84.9485C69.8965 84.9855 69.9361 85.0152 69.9807 85.0356C70.0252 85.0559 70.0736 85.0663 70.1225 85.0662H77.3651Z" fill="#D13F5B"/>
<path d="M77.4666 83.0765C76.9616 82.9628 76.4872 82.7406 76.0764 82.4251C75.3868 81.8885 74.5447 81.5857 73.672 81.5603C72.7993 81.535 71.9412 81.7885 71.2217 82.2841L70.8896 82.5111C70.6289 82.6924 70.3449 82.8375 70.0453 82.9426L69.9961 83.2824C70.3781 83.1665 70.7398 82.9919 71.0683 82.7649L71.4004 82.5365C72.0662 82.0773 72.8604 81.8421 73.6683 81.865C74.4762 81.8878 75.2559 82.1674 75.8948 82.6634C76.3726 83.0304 76.929 83.281 77.5201 83.3952L77.4666 83.0765Z" fill="#4E4F50"/>
<path opacity="0.51" d="M53.9239 123.495L65.3147 120.477C65.4974 120.428 65.6919 120.454 65.8554 120.549C66.019 120.644 66.1383 120.8 66.1872 120.983L68.167 128.418C68.2156 128.601 68.1896 128.796 68.0949 128.96C68.0002 129.124 67.8444 129.243 67.6618 129.292L54.878 132.174C54.8465 132.183 54.8145 132.189 54.7823 132.193C54.6777 132.201 54.5726 132.186 54.4749 132.147C54.3772 132.109 54.2895 132.049 54.2185 131.972C54.1474 131.894 54.0948 131.802 54.0648 131.701C54.0347 131.6 54.0279 131.494 54.0449 131.391L53.4159 124.363C53.3692 124.18 53.3963 123.987 53.4915 123.824C53.5866 123.661 53.742 123.543 53.9239 123.495Z" fill="url(#paint13_linear_525_6367)"/>
<path d="M55.0031 123.119L66.7626 119.973C66.9452 119.925 67.1397 119.951 67.3033 120.045C67.4668 120.14 67.5861 120.296 67.635 120.479L69.8245 128.7C69.8487 128.79 69.8549 128.885 69.8426 128.978C69.8303 129.071 69.7998 129.161 69.7529 129.242C69.706 129.323 69.6435 129.394 69.5691 129.451C69.4947 129.508 69.4098 129.55 69.3193 129.574L65.4089 130.62C65.2985 130.65 65.1826 130.652 65.071 130.628C64.9593 130.603 64.8552 130.552 64.7672 130.479L63.111 129.087C63.0236 129.013 62.9194 128.962 62.8076 128.937C62.6958 128.913 62.5797 128.916 62.4694 128.946L56.9491 130.423C56.7665 130.471 56.572 130.445 56.4084 130.35C56.2448 130.256 56.1255 130.099 56.0767 129.917L54.4993 123.995C54.4748 123.904 54.4685 123.809 54.4806 123.716C54.4927 123.623 54.523 123.533 54.5698 123.452C54.6166 123.371 54.6789 123.299 54.7533 123.242C54.8276 123.185 54.9125 123.143 55.0031 123.119Z" fill="#C4CEE5"/>
<path opacity="0.47" d="M66.2529 121.782L68.0231 127.99" stroke="url(#paint14_linear_525_6367)" stroke-width="5" stroke-miterlimit="10"/>
<path opacity="0.47" d="M64.6875 122.268L66.4563 128.476" stroke="url(#paint15_linear_525_6367)" stroke-width="5" stroke-miterlimit="10"/>
<path opacity="0.47" d="M63.0605 122.753L64.8293 128.961" stroke="url(#paint16_linear_525_6367)" stroke-width="5" stroke-miterlimit="10"/>
<path d="M57.6425 104.413C58.4127 104.413 59.037 103.787 59.037 103.015C59.037 102.244 58.4127 101.618 57.6425 101.618C56.8724 101.618 56.248 102.244 56.248 103.015C56.248 103.787 56.8724 104.413 57.6425 104.413Z" fill="#30302F"/>
<path d="M56.9567 108.766C58.1053 108.766 59.0365 107.833 59.0365 106.682C59.0365 105.531 58.1053 104.598 56.9567 104.598C55.8081 104.598 54.877 105.531 54.877 106.682C54.877 107.833 55.8081 108.766 56.9567 108.766Z" fill="#30302F"/>
<path d="M57.6386 111.743C58.4088 111.743 59.0331 111.117 59.0331 110.346C59.0331 109.574 58.4088 108.948 57.6386 108.948C56.8685 108.948 56.2441 109.574 56.2441 110.346C56.2441 111.117 56.8685 111.743 57.6386 111.743Z" fill="#30302F"/>
<path d="M76.6173 100.837H70.5947V103.186H76.6173V100.837Z" fill="#4E4F50"/>
<path d="M80.6063 101.566L79.5425 101.697C75.5993 102.181 71.6121 102.181 67.669 101.697L66.6052 101.566C66.4714 101.549 66.3468 101.489 66.2508 101.394C66.1549 101.299 66.0929 101.175 66.0747 101.041L65.9537 100.149C65.4685 96.5674 65.3807 92.9432 65.6919 89.3425L65.789 88.2215C65.8017 88.0769 65.8652 87.9414 65.9683 87.8394C66.0714 87.7374 66.2074 87.6754 66.3519 87.6646L69.7895 87.3953C72.3316 87.1951 74.8855 87.1951 77.4275 87.3953L80.8624 87.6688C81.007 87.6794 81.1431 87.7412 81.2462 87.8433C81.3494 87.9454 81.4129 88.081 81.4252 88.2258L81.5223 89.3467C81.8336 92.9474 81.7458 96.5716 81.2606 100.153L81.1396 101.045C81.1203 101.179 81.0576 101.302 80.9612 101.396C80.8647 101.491 80.7399 101.55 80.6063 101.566Z" fill="#F6BE1D"/>
<path d="M81.1366 101.041L81.2576 100.148C81.3974 99.1143 81.5034 98.0826 81.5757 97.0533C79.6057 99.0118 78.8345 99.1965 74.9368 99.0132C72.4391 98.8948 70.4522 96.3624 69.5657 94.4434C68.9269 93.0588 67.804 88.0491 67.6041 87.5654L66.349 87.6641C66.2045 87.675 66.0685 87.7369 65.9654 87.8389C65.8623 87.941 65.7987 88.0764 65.7861 88.2211L65.689 89.342C65.3778 92.9427 65.4655 96.5669 65.9507 100.148L66.0718 101.041C66.09 101.175 66.1519 101.299 66.2479 101.394C66.3439 101.488 66.4685 101.549 66.6023 101.565L67.6661 101.696C71.6092 102.18 75.5964 102.18 79.5395 101.696L80.6033 101.565C80.7376 101.549 80.8629 101.489 80.9594 101.394C81.0559 101.299 81.1182 101.175 81.1366 101.041Z" fill="#EE9E23"/>
<path d="M86.8945 96.486C87.6646 96.486 88.2889 95.8604 88.2889 95.0887C88.2889 94.317 87.6646 93.6914 86.8945 93.6914C86.1243 93.6914 85.5 94.317 85.5 95.0887C85.5 95.8604 86.1243 96.486 86.8945 96.486Z" fill="#30302F"/>
<path d="M90.3708 98.4521C91.5194 98.4521 92.4505 97.5191 92.4505 96.3682C92.4505 95.2172 91.5194 94.2842 90.3708 94.2842C89.2222 94.2842 88.291 95.2172 88.291 96.3682C88.291 97.5191 89.2222 98.4521 90.3708 98.4521Z" fill="#30302F"/>
<path d="M91.7929 94.653C92.5631 94.653 93.1874 94.0274 93.1874 93.2557C93.1874 92.484 92.5631 91.8584 91.7929 91.8584C91.0228 91.8584 90.3984 92.484 90.3984 93.2557C90.3984 94.0274 91.0228 94.653 91.7929 94.653Z" fill="#30302F"/>
<path d="M75.5527 88.9235L91.2339 97.8897L93.6317 82.8887" stroke="#F6BE1D" stroke-width="16" stroke-linejoin="round"/>
<path d="M90.7585 99.2578C91.9071 99.2578 92.8382 98.3248 92.8382 97.1738C92.8382 96.0229 91.9071 95.0898 90.7585 95.0898C89.6099 95.0898 88.6787 96.0229 88.6787 97.1738C88.6787 98.3248 89.6099 99.2578 90.7585 99.2578Z" fill="#4E4F50"/>
<path d="M90.7584 98.3653C91.4151 98.3653 91.9474 97.8319 91.9474 97.1739C91.9474 96.5159 91.4151 95.9824 90.7584 95.9824C90.1017 95.9824 89.5693 96.5159 89.5693 97.1739C89.5693 97.8319 90.1017 98.3653 90.7584 98.3653Z" fill="#30302F"/>
<path d="M86.7685 97.3776C87.5386 97.3776 88.163 96.752 88.163 95.9803C88.163 95.2086 87.5386 94.583 86.7685 94.583C85.9983 94.583 85.374 95.2086 85.374 95.9803C85.374 96.752 85.9983 97.3776 86.7685 97.3776Z" fill="#4E4F50"/>
<path d="M86.7684 96.6872C87.1578 96.6872 87.4734 96.371 87.4734 95.9808C87.4734 95.5907 87.1578 95.2744 86.7684 95.2744C86.3791 95.2744 86.0635 95.5907 86.0635 95.9808C86.0635 96.371 86.3791 96.6872 86.7684 96.6872Z" fill="#30302F"/>
<path d="M92.371 94.8571C93.1412 94.8571 93.7655 94.2315 93.7655 93.4598C93.7655 92.6881 93.1412 92.0625 92.371 92.0625C91.6009 92.0625 90.9766 92.6881 90.9766 93.4598C90.9766 94.2315 91.6009 94.8571 92.371 94.8571Z" fill="#4E4F50"/>
<path d="M92.371 94.1657C92.7603 94.1657 93.076 93.8495 93.076 93.4593C93.076 93.0692 92.7603 92.7529 92.371 92.7529C91.9816 92.7529 91.666 93.0692 91.666 93.4593C91.666 93.8495 91.9816 94.1657 92.371 94.1657Z" fill="#30302F"/>
<path d="M98.1809 83.2527L97.2803 82.4279C97.0854 82.6419 96.8503 82.8154 96.5884 82.9384C96.3266 83.0614 96.0431 83.1315 95.7542 83.1447C95.4653 83.158 95.1766 83.114 94.9046 83.0155C94.6327 82.9169 94.3828 82.7656 94.1692 82.5703C93.9555 82.3749 93.7824 82.1393 93.6597 81.877C93.5369 81.6146 93.4669 81.3305 93.4537 81.041C93.4405 80.7515 93.4844 80.4623 93.5827 80.1898C93.6811 79.9173 93.8321 79.6668 94.027 79.4528L93.1265 78.6279C92.5326 79.3017 92.2266 80.1823 92.2744 81.0799C92.3223 81.9776 92.7201 82.8205 93.3823 83.427C94.0444 84.0335 94.9178 84.3552 95.8144 84.3226C96.7109 84.29 97.5588 83.9058 98.1753 83.2527H98.1809Z" fill="#EE9E23"/>
<path d="M93.6318 84.6364C94.4019 84.6364 95.0263 84.0108 95.0263 83.2391C95.0263 82.4674 94.4019 81.8418 93.6318 81.8418C92.8616 81.8418 92.2373 82.4674 92.2373 83.2391C92.2373 84.0108 92.8616 84.6364 93.6318 84.6364Z" fill="#4E4F50"/>
<path d="M93.6317 83.945C94.0211 83.945 94.3367 83.6288 94.3367 83.2386C94.3367 82.8485 94.0211 82.5322 93.6317 82.5322C93.2424 82.5322 92.9268 82.8485 92.9268 83.2386C92.9268 83.6288 93.2424 83.945 93.6317 83.945Z" fill="#EE9E23"/>
<path d="M68.4807 93.2569C68.5769 93.2569 68.6721 93.2379 68.761 93.201C68.8499 93.164 68.9306 93.1099 68.9986 93.0417C69.0665 92.9734 69.1204 92.8924 69.1571 92.8033C69.1938 92.7142 69.2126 92.6187 69.2124 92.5223V87.4463L66.3489 87.6691C66.2043 87.6799 66.0684 87.7419 65.9653 87.8439C65.8622 87.9459 65.7986 88.0814 65.786 88.226L65.6889 89.347C65.5763 90.6498 65.5163 91.9545 65.5088 93.2611L68.4807 93.2569Z" stroke="#F8E782" stroke-miterlimit="10"/>
<path d="M80.8801 99.2776C80.9763 99.2776 81.0716 99.2586 81.1604 99.2217C81.2493 99.1847 81.33 99.1306 81.398 99.0624C81.4659 98.9941 81.5198 98.9131 81.5565 98.824C81.5932 98.7349 81.612 98.6394 81.6118 98.543V93.46L78.7469 93.6856C78.6024 93.6967 78.4666 93.7587 78.3636 93.8607C78.2605 93.9627 78.1969 94.098 78.184 94.2425L78.0869 95.3635C77.9743 96.6663 77.9148 97.971 77.9082 99.2776H80.8801Z" stroke="#F8E782" stroke-miterlimit="10"/>
<path d="M77.5215 87.4023V91.1826C77.5219 91.3446 77.5864 91.4999 77.7008 91.6144C77.8153 91.7288 77.9705 91.7931 78.1322 91.7931H79.9319C80.0936 91.7931 80.2488 91.7288 80.3633 91.6144C80.4777 91.4999 80.5422 91.3446 80.5426 91.1826V87.6392L77.5215 87.4023Z" fill="#EE9E23"/>
<path d="M77.2542 98.667C77.1741 98.6668 77.0947 98.6825 77.0207 98.7131C76.9466 98.7437 76.8792 98.7886 76.8225 98.8453C76.7658 98.902 76.7208 98.9694 76.6901 99.0436C76.6594 99.1177 76.6436 99.1972 76.6436 99.2775V101.965C77.6117 101.905 78.5779 101.816 79.5423 101.697L80.6061 101.566C80.7399 101.549 80.8645 101.489 80.9604 101.394C81.0564 101.299 81.1183 101.175 81.1366 101.041L81.2576 100.149C81.3237 99.6554 81.3814 99.1619 81.4335 98.667H77.2542Z" fill="#EE9E23"/>
<path d="M79.4564 98.667C78.7388 98.9758 77.9184 99.0745 76.683 99.0674C76.6577 99.1346 76.6444 99.2057 76.6436 99.2775V101.965C77.6042 101.905 78.5624 101.816 79.5183 101.7H79.5423L80.6061 101.569C80.6895 101.559 80.77 101.532 80.8427 101.49C80.9153 101.448 80.9785 101.391 81.0282 101.323C81.0891 101.241 81.1279 101.144 81.1408 101.041L81.2618 100.149C81.3279 99.6554 81.3856 99.1619 81.4377 98.667H79.4564Z" fill="#E77B26"/>
<path d="M67.7674 96.2461H65.585C65.6563 97.5508 65.7791 98.8518 65.9536 100.149L66.0746 101.042C66.0929 101.175 66.1548 101.299 66.2508 101.394C66.3467 101.489 66.4713 101.55 66.6051 101.566L67.6689 101.697C68.0067 101.738 68.3444 101.772 68.6821 101.806V97.1626C68.6821 96.9195 68.5857 96.6864 68.4142 96.5145C68.2427 96.3427 68.01 96.2461 67.7674 96.2461Z" fill="#E77B26"/>
<path d="M76.8519 87.3555C76.7528 86.9062 76.5034 86.5044 76.1451 86.2167C75.7868 85.9289 75.3411 85.7726 74.8819 85.7734H72.5812C72.1262 85.7736 71.6847 85.9283 71.3287 86.2123C70.9727 86.4963 70.7232 86.8928 70.6211 87.3371C72.6963 87.2093 74.7775 87.2154 76.8519 87.3555Z" fill="#4E4F50"/>
<path d="M65.5102 95.3647L64.2283 93.6586C62.399 90.1336 63.4727 89.4921 65.347 88.4642L65.7888 88.2217L65.5102 95.3647Z" fill="#EE9E23"/>
<path d="M81.6587 95.3647L82.9392 93.6586C84.7685 90.1336 83.6962 89.4921 81.8135 88.4642L81.373 88.2217L81.6587 95.3647Z" fill="#EE9E23"/>
<path d="M73.6054 102.366C71.6088 102.366 69.6139 102.244 67.6321 102L66.5683 101.871C66.3676 101.846 66.1808 101.755 66.0369 101.613C65.8931 101.471 65.8004 101.285 65.7733 101.084L65.6508 100.19C65.1638 96.5861 65.0755 92.9393 65.3877 89.316L65.4848 88.1951C65.5031 87.9779 65.5982 87.7744 65.753 87.6214C65.9078 87.4683 66.1121 87.3757 66.3291 87.3603L69.7667 87.0896C72.3248 86.8894 74.8945 86.8894 77.4526 87.0896L80.8902 87.3603C81.1073 87.3754 81.3117 87.4679 81.4666 87.621C81.6215 87.7742 81.7165 87.9778 81.7345 88.1951L81.8316 89.316C82.1438 92.9393 82.0555 96.5861 81.5685 100.19L81.4474 101.084C81.4196 101.285 81.3264 101.47 81.1824 101.613C81.0384 101.755 80.8516 101.846 80.651 101.871L79.5872 102C77.6026 102.244 75.6049 102.366 73.6054 102.366ZM73.6054 87.5507C72.339 87.5507 71.0726 87.6 69.8061 87.7001L66.3685 87.9695C66.2957 87.975 66.2273 88.0065 66.1756 88.0582C66.124 88.1099 66.0926 88.1785 66.0871 88.2515L65.99 89.3724C65.6811 92.9501 65.7684 96.5511 66.2503 100.11L66.3713 101.003C66.3805 101.071 66.4115 101.133 66.4596 101.18C66.5078 101.228 66.5702 101.258 66.6373 101.266L67.7011 101.397C71.6189 101.878 75.5807 101.878 79.4985 101.397L80.5637 101.266C80.6306 101.258 80.6929 101.227 80.7408 101.18C80.7886 101.132 80.8194 101.07 80.8283 101.003L80.9493 100.11C81.4357 96.5506 81.5272 92.9487 81.2223 89.3696L81.1252 88.2486C81.1197 88.1757 81.0883 88.1071 81.0366 88.0554C80.985 88.0036 80.9166 87.9722 80.8438 87.9666L77.4061 87.6973C76.1411 87.6 74.8733 87.5507 73.6054 87.5507Z" fill="#E77B26"/>
<path d="M63.9443 93.0851C63.6935 92.5773 63.4991 92.0435 63.3646 91.4932C63.2337 91.6031 59.9101 94.5233 57.9007 99.454C56.0517 103.991 54.826 111.385 59.4893 120.848L60.8571 120.171C57.3279 113.011 56.7989 106.259 59.2853 100.1C60.8852 96.1292 63.29 93.6998 63.9443 93.0851Z" fill="#F6BE1D"/>
<path d="M56.1061 108.766C57.2547 108.766 58.1859 107.833 58.1859 106.682C58.1859 105.531 57.2547 104.598 56.1061 104.598C54.9575 104.598 54.0264 105.531 54.0264 106.682C54.0264 107.833 54.9575 108.766 56.1061 108.766Z" fill="#4E4F50"/>
<path d="M56.106 107.873C56.7627 107.873 57.2951 107.34 57.2951 106.682C57.2951 106.024 56.7627 105.49 56.106 105.49C55.4493 105.49 54.917 106.024 54.917 106.682C54.917 107.34 55.4493 107.873 56.106 107.873Z" fill="#30302F"/>
<path d="M56.956 104.413C57.7261 104.413 58.3505 103.787 58.3505 103.015C58.3505 102.244 57.7261 101.618 56.956 101.618C56.1858 101.618 55.5615 102.244 55.5615 103.015C55.5615 103.787 56.1858 104.413 56.956 104.413Z" fill="#4E4F50"/>
<path d="M56.956 103.721C57.3453 103.721 57.6609 103.405 57.6609 103.015C57.6609 102.625 57.3453 102.309 56.956 102.309C56.5666 102.309 56.251 102.625 56.251 103.015C56.251 103.405 56.5666 103.721 56.956 103.721Z" fill="#30302F"/>
<path d="M56.9521 111.743C57.7222 111.743 58.3466 111.117 58.3466 110.346C58.3466 109.574 57.7222 108.948 56.9521 108.948C56.1819 108.948 55.5576 109.574 55.5576 110.346C55.5576 111.117 56.1819 111.743 56.9521 111.743Z" fill="#4E4F50"/>
<path d="M56.952 111.052C57.3414 111.052 57.657 110.736 57.657 110.346C57.657 109.956 57.3414 109.64 56.952 109.64C56.5627 109.64 56.2471 109.956 56.2471 110.346C56.2471 110.736 56.5627 111.052 56.952 111.052Z" fill="#30302F"/>
<path d="M58.3297 124.957C58.1262 124.551 58.0055 124.107 57.9747 123.654C57.9439 123.2 58.0035 122.744 58.1501 122.314C58.2967 121.883 58.5274 121.486 58.8287 121.146C59.13 120.806 59.4958 120.529 59.9049 120.332C60.314 120.135 60.7582 120.021 61.2116 119.998C61.665 119.974 62.1185 120.042 62.5456 120.196C62.9728 120.35 63.3651 120.587 63.6997 120.895C64.0342 121.202 64.3044 121.573 64.4944 121.986L63.3954 122.515C63.1348 122.001 62.6835 121.61 62.1384 121.425C61.5932 121.24 60.9976 121.277 60.479 121.527C59.9604 121.777 59.5602 122.22 59.3641 122.763C59.1681 123.305 59.1917 123.902 59.4301 124.427L58.3297 124.957Z" fill="#EE9E23"/>
<path d="M60.2265 122.053C60.9967 122.053 61.621 121.428 61.621 120.656C61.621 119.884 60.9967 119.259 60.2265 119.259C59.4564 119.259 58.832 119.884 58.832 120.656C58.832 121.428 59.4564 122.053 60.2265 122.053Z" fill="#4E4F50"/>
<path d="M60.2265 121.362C60.6158 121.362 60.9314 121.046 60.9314 120.656C60.9314 120.265 60.6158 119.949 60.2265 119.949C59.8371 119.949 59.5215 120.265 59.5215 120.656C59.5215 121.046 59.8371 121.362 60.2265 121.362Z" fill="#EE9E23"/>
<path d="M68.0375 97.1875C68.1829 97.1875 68.3007 97.0695 68.3007 96.9238C68.3007 96.7782 68.1829 96.6602 68.0375 96.6602C67.8922 96.6602 67.7744 96.7782 67.7744 96.9238C67.7744 97.0695 67.8922 97.1875 68.0375 97.1875Z" fill="#020202"/>
<path d="M78.1743 91.2998C78.3196 91.2998 78.4374 91.1818 78.4374 91.0361C78.4374 90.8905 78.3196 90.7725 78.1743 90.7725C78.029 90.7725 77.9111 90.8905 77.9111 91.0361C77.9111 91.1818 78.029 91.2998 78.1743 91.2998Z" fill="#020202"/>
<path d="M80.0249 91.2998C80.1702 91.2998 80.288 91.1818 80.288 91.0361C80.288 90.8905 80.1702 90.7725 80.0249 90.7725C79.8795 90.7725 79.7617 90.8905 79.7617 91.0361C79.7617 91.1818 79.8795 91.2998 80.0249 91.2998Z" fill="#020202"/>
<path d="M80.0249 88.749C80.1702 88.749 80.288 88.631 80.288 88.4853C80.288 88.3397 80.1702 88.2217 80.0249 88.2217C79.8795 88.2217 79.7617 88.3397 79.7617 88.4853C79.7617 88.631 79.8795 88.749 80.0249 88.749Z" fill="#020202"/>
<path d="M78.1743 88.4854C78.3196 88.4854 78.4374 88.3673 78.4374 88.2217C78.4374 88.0761 78.3196 87.958 78.1743 87.958C78.029 87.958 77.9111 88.0761 77.9111 88.2217C77.9111 88.3673 78.029 88.4854 78.1743 88.4854Z" fill="#020202"/>
<path d="M77.2583 99.5537C77.4036 99.5537 77.5214 99.4357 77.5214 99.29C77.5214 99.1444 77.4036 99.0264 77.2583 99.0264C77.1129 99.0264 76.9951 99.1444 76.9951 99.29C76.9951 99.4357 77.1129 99.5537 77.2583 99.5537Z" fill="#020202"/>
<path d="M80.5424 99.541C80.6878 99.541 80.8056 99.423 80.8056 99.2773C80.8056 99.1317 80.6878 99.0137 80.5424 99.0137C80.3971 99.0137 80.2793 99.1317 80.2793 99.2773C80.2793 99.423 80.3971 99.541 80.5424 99.541Z" fill="#020202"/>
<path d="M66.4038 97.1875C66.5491 97.1875 66.6669 97.0695 66.6669 96.9238C66.6669 96.7782 66.5491 96.6602 66.4038 96.6602C66.2584 96.6602 66.1406 96.7782 66.1406 96.9238C66.1406 97.0695 66.2584 97.1875 66.4038 97.1875Z" fill="#020202"/>
<path d="M68.1616 101.225C68.3069 101.225 68.4247 101.107 68.4247 100.961C68.4247 100.815 68.3069 100.697 68.1616 100.697C68.0162 100.697 67.8984 100.815 67.8984 100.961C67.8984 101.107 68.0162 101.225 68.1616 101.225Z" fill="#020202"/>
<path d="M77.2583 101.364C77.4036 101.364 77.5214 101.246 77.5214 101.101C77.5214 100.955 77.4036 100.837 77.2583 100.837C77.1129 100.837 76.9951 100.955 76.9951 101.101C76.9951 101.246 77.1129 101.364 77.2583 101.364Z" fill="#020202"/>
<path d="M57.748 122.384L61.5755 121.36L60.1416 123.863L59.6618 124.565L58.833 125.039L57.9042 124.957L57.748 122.384Z" fill="#C4CEE5"/>
<path d="M143.766 96.6299V113.712" stroke="#3E5FAB" stroke-width="3" stroke-miterlimit="10"/>
<path d="M150.83 89.1953H136.701C136.344 89.1953 136.055 89.4851 136.055 89.8425V99.4192C136.055 99.7767 136.344 100.066 136.701 100.066H150.83C151.186 100.066 151.476 99.7767 151.476 99.4192V89.8425C151.476 89.4851 151.186 89.1953 150.83 89.1953Z" fill="#F9BF1F"/>
<path d="M143.766 116.642C146.205 116.642 148.183 114.66 148.183 112.216C148.183 109.772 146.205 107.79 143.766 107.79C141.326 107.79 139.349 109.772 139.349 112.216C139.349 114.66 141.326 116.642 143.766 116.642Z" fill="#3E5FAB"/>
<path d="M143.766 116.642C146.205 116.642 148.183 114.66 148.183 112.216C148.183 109.772 146.205 107.79 143.766 107.79C141.326 107.79 139.349 109.772 139.349 112.216C139.349 114.66 141.326 116.642 143.766 116.642Z" fill="#3E5FAB"/>
<path d="M143.765 106.568C145.242 106.568 146.439 105.369 146.439 103.889C146.439 102.409 145.242 101.21 143.765 101.21C142.289 101.21 141.092 102.409 141.092 103.889C141.092 105.369 142.289 106.568 143.765 106.568Z" fill="#3E5FAB"/>
<path opacity="0.25" d="M141.911 89.1951L138.828 100.066H136.701C136.616 100.066 136.532 100.049 136.453 100.017C136.375 99.9844 136.304 99.9367 136.244 99.8766C136.184 99.8165 136.136 99.7452 136.104 99.6667C136.071 99.5882 136.055 99.504 136.055 99.419V99.0595L138.853 89.1895L141.911 89.1951Z" fill="white"/>
<path opacity="0.25" d="M148.334 89.1953L145.251 100.066H140.136L143.223 89.1953H148.334Z" fill="white"/>
<path d="M144.63 101.357C144.263 101.233 143.873 101.19 143.488 101.231C143.103 101.273 142.731 101.398 142.399 101.597C142.067 101.797 141.782 102.067 141.564 102.388C141.346 102.709 141.2 103.073 141.137 103.456C141.073 103.839 141.094 104.231 141.196 104.606C141.299 104.98 141.482 105.328 141.732 105.624C141.982 105.921 142.294 106.159 142.645 106.323C142.996 106.487 143.379 106.573 143.766 106.574C143.86 106.574 143.953 106.574 144.047 106.56C143.292 105.927 142.286 105.478 142.286 104.287C142.283 102.729 143.993 102.438 144.63 101.357Z" fill="#8EB8E2"/>
<path d="M139.349 112.216C139.349 113.39 139.814 114.515 140.642 115.346C141.471 116.176 142.594 116.642 143.766 116.642C144.07 116.642 144.374 116.611 144.672 116.549C144.802 116.299 144.868 116.022 144.866 115.741C144.866 113.83 142.283 113.83 142.283 111.92C142.283 110.009 144.866 110.011 144.866 108.1C144.866 108.041 144.856 107.987 144.852 107.931C144.2 107.762 143.519 107.745 142.859 107.881C142.2 108.017 141.581 108.304 141.049 108.718C140.517 109.131 140.088 109.662 139.793 110.269C139.498 110.875 139.346 111.541 139.349 112.216Z" fill="#8EB8E2"/>
<defs>
<linearGradient id="paint0_linear_525_6367" x1="45.2863" y1="154.642" x2="44.8893" y2="143.804" gradientUnits="userSpaceOnUse">
<stop stop-color="white" stop-opacity="0"/>
<stop offset="0.01" stop-color="#FCFDFE" stop-opacity="0.02"/>
<stop offset="0.14" stop-color="#D1DDEF" stop-opacity="0.27"/>
<stop offset="0.28" stop-color="#ACC2E1" stop-opacity="0.5"/>
<stop offset="0.43" stop-color="#8EACD6" stop-opacity="0.68"/>
<stop offset="0.57" stop-color="#769ACE" stop-opacity="0.82"/>
<stop offset="0.71" stop-color="#658EC8" stop-opacity="0.92"/>
<stop offset="0.85" stop-color="#5B86C4" stop-opacity="0.98"/>
<stop offset="1" stop-color="#5884C3"/>
</linearGradient>
<linearGradient id="paint1_linear_525_6367" x1="102.398" y1="146.967" x2="102.398" y2="99.0663" gradientUnits="userSpaceOnUse">
<stop stop-color="white" stop-opacity="0"/>
<stop offset="0.01" stop-color="#FCFDFE" stop-opacity="0.02"/>
<stop offset="0.14" stop-color="#D1DDEF" stop-opacity="0.27"/>
<stop offset="0.28" stop-color="#ACC2E1" stop-opacity="0.5"/>
<stop offset="0.43" stop-color="#8EACD6" stop-opacity="0.68"/>
<stop offset="0.57" stop-color="#769ACE" stop-opacity="0.82"/>
<stop offset="0.71" stop-color="#658EC8" stop-opacity="0.92"/>
<stop offset="0.85" stop-color="#5B86C4" stop-opacity="0.98"/>
<stop offset="1" stop-color="#5884C3"/>
</linearGradient>
<linearGradient id="paint2_linear_525_6367" x1="86.3145" y1="131.028" x2="119.671" y2="131.028" gradientUnits="userSpaceOnUse">
<stop stop-color="#4058A6"/>
<stop offset="0.25" stop-color="#415AA8" stop-opacity="0.97"/>
<stop offset="0.49" stop-color="#4562AD" stop-opacity="0.89"/>
<stop offset="0.72" stop-color="#4C6FB5" stop-opacity="0.74"/>
<stop offset="0.96" stop-color="#5680C0" stop-opacity="0.54"/>
<stop offset="1" stop-color="#5884C3" stop-opacity="0.5"/>
</linearGradient>
<linearGradient id="paint3_linear_525_6367" x1="86.3145" y1="134.86" x2="119.671" y2="134.86" gradientUnits="userSpaceOnUse">
<stop stop-color="#4058A6"/>
<stop offset="0.25" stop-color="#415AA8" stop-opacity="0.97"/>
<stop offset="0.49" stop-color="#4562AD" stop-opacity="0.89"/>
<stop offset="0.72" stop-color="#4C6FB5" stop-opacity="0.74"/>
<stop offset="0.96" stop-color="#5680C0" stop-opacity="0.54"/>
<stop offset="1" stop-color="#5884C3" stop-opacity="0.5"/>
</linearGradient>
<linearGradient id="paint4_linear_525_6367" x1="86.3145" y1="110.913" x2="119.671" y2="110.913" gradientUnits="userSpaceOnUse">
<stop stop-color="#4058A6"/>
<stop offset="0.25" stop-color="#415AA8" stop-opacity="0.97"/>
<stop offset="0.49" stop-color="#4562AD" stop-opacity="0.89"/>
<stop offset="0.72" stop-color="#4C6FB5" stop-opacity="0.74"/>
<stop offset="0.96" stop-color="#5680C0" stop-opacity="0.54"/>
<stop offset="1" stop-color="#5884C3" stop-opacity="0.5"/>
</linearGradient>
<linearGradient id="paint5_linear_525_6367" x1="86.3145" y1="114.745" x2="119.671" y2="114.745" gradientUnits="userSpaceOnUse">
<stop stop-color="#4058A6"/>
<stop offset="0.25" stop-color="#415AA8" stop-opacity="0.97"/>
<stop offset="0.49" stop-color="#4562AD" stop-opacity="0.89"/>
<stop offset="0.72" stop-color="#4C6FB5" stop-opacity="0.74"/>
<stop offset="0.96" stop-color="#5680C0" stop-opacity="0.54"/>
<stop offset="1" stop-color="#5884C3" stop-opacity="0.5"/>
</linearGradient>
<linearGradient id="paint6_linear_525_6367" x1="86.3145" y1="103.248" x2="119.671" y2="103.248" gradientUnits="userSpaceOnUse">
<stop stop-color="#4058A6"/>
<stop offset="0.25" stop-color="#415AA8" stop-opacity="0.97"/>
<stop offset="0.49" stop-color="#4562AD" stop-opacity="0.89"/>
<stop offset="0.72" stop-color="#4C6FB5" stop-opacity="0.74"/>
<stop offset="0.96" stop-color="#5680C0" stop-opacity="0.54"/>
<stop offset="1" stop-color="#5884C3" stop-opacity="0.5"/>
</linearGradient>
<linearGradient id="paint7_linear_525_6367" x1="86.3145" y1="99.416" x2="119.671" y2="99.416" gradientUnits="userSpaceOnUse">
<stop stop-color="#4058A6"/>
<stop offset="0.25" stop-color="#415AA8" stop-opacity="0.97"/>
<stop offset="0.49" stop-color="#4562AD" stop-opacity="0.89"/>
<stop offset="0.72" stop-color="#4C6FB5" stop-opacity="0.74"/>
<stop offset="0.96" stop-color="#5680C0" stop-opacity="0.54"/>
<stop offset="1" stop-color="#5884C3" stop-opacity="0.5"/>
</linearGradient>
<linearGradient id="paint8_linear_525_6367" x1="86.3145" y1="107.08" x2="119.671" y2="107.08" gradientUnits="userSpaceOnUse">
<stop stop-color="#4058A6"/>
<stop offset="0.25" stop-color="#415AA8" stop-opacity="0.97"/>
<stop offset="0.49" stop-color="#4562AD" stop-opacity="0.89"/>
<stop offset="0.72" stop-color="#4C6FB5" stop-opacity="0.74"/>
<stop offset="0.96" stop-color="#5680C0" stop-opacity="0.54"/>
<stop offset="1" stop-color="#5884C3" stop-opacity="0.5"/>
</linearGradient>
<linearGradient id="paint9_linear_525_6367" x1="43.2939" y1="65.7039" x2="65.5001" y2="65.7039" gradientUnits="userSpaceOnUse">
<stop stop-color="white" stop-opacity="0"/>
<stop offset="0.1" stop-color="#FDE6E6" stop-opacity="0.15"/>
<stop offset="0.28" stop-color="#FABBBA" stop-opacity="0.4"/>
<stop offset="0.46" stop-color="#F79796" stop-opacity="0.62"/>
<stop offset="0.63" stop-color="#F57B79" stop-opacity="0.78"/>
<stop offset="0.78" stop-color="#F36765" stop-opacity="0.9"/>
<stop offset="0.91" stop-color="#F25A58" stop-opacity="0.97"/>
<stop offset="1" stop-color="#F25654"/>
</linearGradient>
<linearGradient id="paint10_linear_525_6367" x1="134.695" y1="77.4701" x2="178.602" y2="77.4701" gradientUnits="userSpaceOnUse">
<stop stop-color="#4058A6"/>
<stop offset="1" stop-color="#5884C3" stop-opacity="0.1"/>
</linearGradient>
<linearGradient id="paint11_linear_525_6367" x1="152.229" y1="75.5127" x2="174.176" y2="75.5127" gradientUnits="userSpaceOnUse">
<stop stop-color="#4058A6"/>
<stop offset="0.25" stop-color="#415AA8" stop-opacity="0.97"/>
<stop offset="0.49" stop-color="#4562AD" stop-opacity="0.89"/>
<stop offset="0.72" stop-color="#4C6FB5" stop-opacity="0.74"/>
<stop offset="0.96" stop-color="#5680C0" stop-opacity="0.54"/>
<stop offset="1" stop-color="#5884C3" stop-opacity="0.5"/>
</linearGradient>
<linearGradient id="paint12_linear_525_6367" x1="152.229" y1="80.3613" x2="174.176" y2="80.3613" gradientUnits="userSpaceOnUse">
<stop stop-color="#4058A6"/>
<stop offset="0.25" stop-color="#415AA8" stop-opacity="0.97"/>
<stop offset="0.49" stop-color="#4562AD" stop-opacity="0.89"/>
<stop offset="0.72" stop-color="#4C6FB5" stop-opacity="0.74"/>
<stop offset="0.96" stop-color="#5680C0" stop-opacity="0.54"/>
<stop offset="1" stop-color="#5884C3" stop-opacity="0.5"/>
</linearGradient>
<linearGradient id="paint13_linear_525_6367" x1="53.392" y1="126.329" x2="68.1909" y2="126.329" gradientUnits="userSpaceOnUse">
<stop stop-color="#4059A6"/>
<stop offset="1" stop-color="#5883C2" stop-opacity="0.1"/>
</linearGradient>
<linearGradient id="paint14_linear_525_6367" x1="65.9152" y1="124.887" x2="68.3608" y2="124.887" gradientUnits="userSpaceOnUse">
<stop stop-color="#4059A6"/>
<stop offset="0.25" stop-color="#415BA8" stop-opacity="0.97"/>
<stop offset="0.48" stop-color="#4562AC" stop-opacity="0.89"/>
<stop offset="0.72" stop-color="#4C6EB4" stop-opacity="0.75"/>
<stop offset="0.95" stop-color="#567FBF" stop-opacity="0.55"/>
<stop offset="1" stop-color="#5883C2" stop-opacity="0.5"/>
</linearGradient>
<linearGradient id="paint15_linear_525_6367" x1="64.3498" y1="125.371" x2="66.794" y2="125.371" gradientUnits="userSpaceOnUse">
<stop stop-color="#4059A6"/>
<stop offset="0.25" stop-color="#415BA8" stop-opacity="0.97"/>
<stop offset="0.48" stop-color="#4562AC" stop-opacity="0.89"/>
<stop offset="0.72" stop-color="#4C6EB4" stop-opacity="0.75"/>
<stop offset="0.95" stop-color="#567FBF" stop-opacity="0.55"/>
<stop offset="1" stop-color="#5883C2" stop-opacity="0.5"/>
</linearGradient>
<linearGradient id="paint16_linear_525_6367" x1="62.7214" y1="125.858" x2="65.167" y2="125.858" gradientUnits="userSpaceOnUse">
<stop stop-color="#4059A6"/>
<stop offset="0.25" stop-color="#415BA8" stop-opacity="0.97"/>
<stop offset="0.48" stop-color="#4562AC" stop-opacity="0.89"/>
<stop offset="0.72" stop-color="#4C6EB4" stop-opacity="0.75"/>
<stop offset="0.95" stop-color="#567FBF" stop-opacity="0.55"/>
<stop offset="1" stop-color="#5883C2" stop-opacity="0.5"/>
</linearGradient>
</defs>
</svg>
