<svg width="222" height="130" viewBox="0 0 222 130" fill="none" xmlns="http://www.w3.org/2000/svg">
<path d="M82.7237 128.587C117.779 128.587 146.198 100.141 146.198 65.0516C146.198 29.9622 117.779 1.5166 82.7237 1.5166C47.6679 1.5166 19.2495 29.9622 19.2495 65.0516C19.2495 100.141 47.6679 128.587 82.7237 128.587Z" fill="#D9EBFF"/>
<path d="M180.927 55.9298C196.357 55.9298 208.866 43.4095 208.866 27.9649C208.866 12.5203 196.357 0 180.927 0C165.498 0 152.989 12.5203 152.989 27.9649C152.989 43.4095 165.498 55.9298 180.927 55.9298Z" fill="#D9EBFF"/>
<path d="M195.392 106.485C195.254 106.485 195.121 106.43 195.023 106.332C194.925 106.234 194.87 106.101 194.87 105.963V61.1371H178.353C178.215 61.137 178.082 61.082 177.984 60.984C177.886 60.886 177.831 60.7531 177.831 60.6146V26.3731H65.4384V40.8409C65.4384 40.9794 65.3834 41.1123 65.2855 41.2103C65.1876 41.3083 65.0549 41.3633 64.9164 41.3634H29.6563V66.6964H37.8931C38.0315 66.6965 38.1643 66.7515 38.2622 66.8495C38.3601 66.9475 38.4151 67.0804 38.4151 67.2189V72.7855C38.4151 72.9241 38.3601 73.057 38.2622 73.1549C38.1643 73.2529 38.0315 73.308 37.8931 73.308C37.7547 73.308 37.6219 73.2529 37.524 73.1549C37.4261 73.057 37.3711 72.9241 37.3711 72.7855V67.7415H29.1343C28.9959 67.7414 28.8631 67.6864 28.7652 67.5884C28.6673 67.4904 28.6123 67.3575 28.6123 67.2189V40.8409C28.6123 40.7023 28.6673 40.5694 28.7652 40.4714C28.8631 40.3735 28.9959 40.3184 29.1343 40.3184H64.3944V25.8506C64.3945 25.7121 64.4495 25.5792 64.5474 25.4812C64.6453 25.3832 64.778 25.3282 64.9164 25.3281H178.353C178.492 25.3282 178.624 25.3832 178.722 25.4812C178.82 25.5792 178.875 25.7121 178.875 25.8506V60.0921H195.392C195.53 60.0921 195.663 60.1472 195.761 60.2451C195.859 60.3431 195.914 60.476 195.914 60.6146V105.963C195.914 106.101 195.859 106.234 195.761 106.332C195.663 106.43 195.53 106.485 195.392 106.485Z" fill="#A9C0FF"/>
<path d="M138.13 7.0933V45.064C138.13 45.2264 138.098 45.3873 138.036 45.5374C137.974 45.6875 137.883 45.8238 137.768 45.9387C137.654 46.0535 137.517 46.1446 137.367 46.2068C137.218 46.2689 137.057 46.3009 136.895 46.3008H98.7811C98.4536 46.2999 98.1399 46.1693 97.9084 45.9375C97.6769 45.7058 97.5464 45.3917 97.5454 45.064V1.83058C97.5454 1.66814 97.5773 1.50729 97.6394 1.35721C97.7014 1.20713 97.7925 1.07076 97.9072 0.9559C98.022 0.84104 98.1582 0.749938 98.3081 0.687799C98.4581 0.62566 98.6188 0.593701 98.7811 0.59375H131.631L138.13 7.0933Z" fill="#779DD8"/>
<path d="M110.147 6.69434H103.246C102.67 6.69434 102.202 7.1622 102.202 7.73934V14.6468C102.202 15.2239 102.67 15.6918 103.246 15.6918H110.147C110.724 15.6918 111.191 15.2239 111.191 14.6468V7.73934C111.191 7.1622 110.724 6.69434 110.147 6.69434Z" fill="white"/>
<path d="M121.288 6.69434H114.387C113.811 6.69434 113.343 7.1622 113.343 7.73934V14.6468C113.343 15.2239 113.811 15.6918 114.387 15.6918H121.288C121.865 15.6918 122.332 15.2239 122.332 14.6468V7.73934C122.332 7.1622 121.865 6.69434 121.288 6.69434Z" fill="white"/>
<path d="M133.465 18.8594H102.202V20.2527H133.465V18.8594Z" fill="#4D76B8"/>
<path d="M133.465 23.4268H102.202V24.8201H133.465V23.4268Z" fill="#4D76B8"/>
<path d="M133.465 27.9922H102.202V29.3855H133.465V27.9922Z" fill="#4D76B8"/>
<path d="M133.465 32.5586H102.202V33.9519H133.465V32.5586Z" fill="#4D76B8"/>
<path d="M133.465 37.125H102.202V38.5183H133.465V37.125Z" fill="#4D76B8"/>
<path d="M133.465 41.6914H102.202V43.0847H133.465V41.6914Z" fill="#4D76B8"/>
<path d="M138.309 7.27263H132.248C132.167 7.27263 132.087 7.25663 132.012 7.22555C131.937 7.19448 131.869 7.14892 131.811 7.0915C131.754 7.03407 131.708 6.9659 131.677 6.89087C131.646 6.81584 131.63 6.73542 131.63 6.65421V0.59375L138.13 7.0933L138.309 7.27263ZM145.403 14.7582V52.7289C145.403 52.8914 145.371 53.0522 145.309 53.2023C145.247 53.3524 145.156 53.4887 145.041 53.6036C144.927 53.7184 144.79 53.8095 144.64 53.8717C144.49 53.9338 144.33 53.9658 144.168 53.9658H106.054C105.727 53.9648 105.413 53.8342 105.181 53.6025C104.95 53.3707 104.819 53.0567 104.818 52.7289V9.4955C104.818 9.33307 104.85 9.17221 104.912 9.02213C104.974 8.87205 105.065 8.73568 105.18 8.62082C105.295 8.50596 105.431 8.41486 105.581 8.35272C105.731 8.29058 105.892 8.25862 106.054 8.25867H138.904L145.403 14.7582Z" fill="#A9C0FF"/>
<path d="M145.583 14.9367H139.522C139.358 14.9367 139.201 14.8715 139.085 14.7556C138.969 14.6396 138.904 14.4823 138.904 14.3183V8.25781L145.403 14.7574L145.583 14.9367Z" fill="#4D76B8"/>
<path d="M120.076 16.5303H110.707C110.323 16.5303 110.011 16.8422 110.011 17.2269V25.3574C110.011 25.7421 110.323 26.0541 110.707 26.0541H120.076C120.46 26.0541 120.772 25.7421 120.772 25.3574V17.2269C120.772 16.8422 120.46 16.5303 120.076 16.5303Z" fill="white"/>
<path d="M138.903 45.2598H110.256V46.3048H138.903V45.2598Z" fill="#456BA3"/>
<path d="M138.903 41.8584H110.256V42.9034H138.903V41.8584Z" fill="#456BA3"/>
<path d="M138.903 38.457H110.256V39.502H138.903V38.457Z" fill="#456BA3"/>
<path d="M138.903 35.0557H110.256V36.1007H138.903V35.0557Z" fill="#456BA3"/>
<path d="M138.903 31.6543H110.256V32.6993H138.903V31.6543Z" fill="#456BA3"/>
<path d="M138.903 28.2529H110.256V29.2979H138.903V28.2529Z" fill="#456BA3"/>
<path d="M138.904 24.8516H123.943V25.8966H138.904V24.8516Z" fill="#456BA3"/>
<path d="M138.904 21.4502H123.943V22.4952H138.904V21.4502Z" fill="#456BA3"/>
<path d="M138.904 18.0488H123.943V19.0938H138.904V18.0488Z" fill="#456BA3"/>
<path d="M132.13 105.337H116.009V121.473H132.13V105.337Z" fill="#A9C0FF"/>
<path d="M116.009 120.428V106.382C116.009 106.105 115.899 105.839 115.703 105.643C115.508 105.447 115.242 105.337 114.965 105.337H112.042C111.765 105.337 111.5 105.447 111.304 105.643C111.108 105.839 110.998 106.105 110.998 106.382V125.444C110.998 125.721 111.108 125.987 111.304 126.183C111.5 126.379 111.765 126.489 112.042 126.489H131.086C131.363 126.489 131.628 126.379 131.824 126.183C132.02 125.987 132.13 125.721 132.13 125.444V122.518C132.13 122.241 132.02 121.975 131.824 121.779C131.628 121.583 131.363 121.473 131.086 121.473H117.053C116.916 121.473 116.78 121.446 116.654 121.393C116.527 121.341 116.412 121.264 116.315 121.167C116.218 121.07 116.141 120.954 116.089 120.828C116.036 120.701 116.009 120.565 116.009 120.428Z" fill="#6299E8"/>
<path d="M126.575 121.473V126.489H141.652C141.928 126.489 142.194 126.379 142.39 126.183C142.586 125.987 142.696 125.721 142.696 125.444V122.518C142.696 122.241 142.586 121.975 142.39 121.779C142.194 121.583 141.928 121.473 141.652 121.473H126.575Z" fill="#C2D5FF"/>
<path d="M171.935 119.807C181.801 119.807 189.799 111.801 189.799 101.925C189.799 92.0497 181.801 84.0439 171.935 84.0439C162.069 84.0439 154.071 92.0497 154.071 101.925C154.071 111.801 162.069 119.807 171.935 119.807Z" fill="#D9EBFF"/>
<path d="M42.2113 24.2911H28.3467C28.2083 24.2911 28.0755 24.236 27.9776 24.1381C27.8797 24.0401 27.8247 23.9072 27.8247 23.7686C27.8247 23.63 27.8797 23.4971 27.9776 23.3991C28.0755 23.3011 28.2083 23.2461 28.3467 23.2461H42.2113C42.3498 23.2461 42.4825 23.3011 42.5804 23.3991C42.6783 23.4971 42.7333 23.63 42.7333 23.7686C42.7333 23.9072 42.6783 24.0401 42.5804 24.1381C42.4825 24.236 42.3498 24.2911 42.2113 24.2911ZM42.2113 27.8023H28.3467C28.2083 27.8023 28.0755 27.7473 27.9776 27.6493C27.8797 27.5513 27.8247 27.4184 27.8247 27.2798C27.8247 27.1412 27.8797 27.0083 27.9776 26.9104C28.0755 26.8124 28.2083 26.7573 28.3467 26.7573H42.2113C42.3498 26.7573 42.4825 26.8124 42.5804 26.9104C42.6783 27.0083 42.7333 27.1412 42.7333 27.2798C42.7333 27.4184 42.6783 27.5513 42.5804 27.6493C42.4825 27.7473 42.3498 27.8023 42.2113 27.8023ZM42.2113 31.3135H28.3467C28.2083 31.3135 28.0755 31.2585 27.9776 31.1605C27.8797 31.0625 27.8247 30.9296 27.8247 30.791C27.8247 30.6525 27.8797 30.5196 27.9776 30.4216C28.0755 30.3236 28.2083 30.2685 28.3467 30.2685H42.2113C42.3498 30.2685 42.4825 30.3236 42.5804 30.4216C42.6783 30.5196 42.7333 30.6525 42.7333 30.791C42.7333 30.9296 42.6783 31.0625 42.5804 31.1605C42.4825 31.2585 42.3498 31.3135 42.2113 31.3135ZM221.427 102.606H207.563C207.424 102.606 207.291 102.551 207.194 102.453C207.096 102.355 207.041 102.222 207.041 102.083C207.041 101.945 207.096 101.812 207.194 101.714C207.291 101.616 207.424 101.561 207.563 101.561H221.427C221.566 101.561 221.698 101.616 221.796 101.714C221.894 101.812 221.949 101.945 221.949 102.083C221.949 102.222 221.894 102.355 221.796 102.453C221.698 102.551 221.566 102.606 221.427 102.606ZM221.427 106.117H207.563C207.424 106.117 207.291 106.062 207.194 105.964C207.096 105.866 207.041 105.733 207.041 105.595C207.041 105.456 207.096 105.323 207.194 105.225C207.291 105.127 207.424 105.072 207.563 105.072H221.427C221.566 105.072 221.698 105.127 221.796 105.225C221.894 105.323 221.949 105.456 221.949 105.595C221.949 105.733 221.894 105.866 221.796 105.964C221.698 106.062 221.566 106.117 221.427 106.117ZM221.427 109.628H207.563C207.424 109.628 207.291 109.573 207.194 109.475C207.096 109.377 207.041 109.244 207.041 109.106C207.041 108.967 207.096 108.834 207.194 108.736C207.291 108.638 207.424 108.583 207.563 108.583H221.427C221.566 108.583 221.698 108.638 221.796 108.736C221.894 108.834 221.949 108.967 221.949 109.106C221.949 109.244 221.894 109.377 221.796 109.475C221.698 109.573 221.566 109.628 221.427 109.628Z" fill="#A9C0FF"/>
<path d="M161.977 41.6396H73.4459C72.2927 41.6396 71.3579 42.5754 71.3579 43.7296V106.73C71.3579 107.885 72.2927 108.82 73.4459 108.82H161.977C163.13 108.82 164.065 107.885 164.065 106.73V43.7296C164.065 42.5754 163.13 41.6396 161.977 41.6396Z" fill="#6299E8"/>
<path d="M161.977 109.343H73.4459C72.754 109.342 72.0905 109.067 71.6012 108.577C71.1119 108.087 70.8367 107.423 70.8359 106.73V43.7297C70.8367 43.037 71.1119 42.373 71.6012 41.8832C72.0905 41.3934 72.754 41.1179 73.4459 41.1172H161.977C162.669 41.1179 163.333 41.3934 163.822 41.8832C164.311 42.373 164.587 43.037 164.587 43.7297V106.73C164.587 107.423 164.311 108.087 163.822 108.577C163.333 109.067 162.669 109.342 161.977 109.343ZM73.4459 42.1622C73.0307 42.1626 72.6327 42.3279 72.3391 42.6218C72.0455 42.9157 71.8804 43.3141 71.8799 43.7297V106.73C71.8804 107.146 72.0455 107.544 72.3391 107.838C72.6327 108.132 73.0307 108.297 73.4459 108.298H161.977C162.392 108.297 162.791 108.132 163.084 107.838C163.378 107.544 163.543 107.146 163.543 106.73V43.7297C163.543 43.3141 163.378 42.9157 163.084 42.6218C162.791 42.3279 162.392 42.1626 161.977 42.1622H73.4459Z" fill="#4D76B8"/>
<path d="M167.792 41.6396H79.2604C78.1072 41.6396 77.1724 42.5754 77.1724 43.7296V106.73C77.1724 107.885 78.1072 108.82 79.2604 108.82H167.792C168.945 108.82 169.88 107.885 169.88 106.73V43.7296C169.88 42.5754 168.945 41.6396 167.792 41.6396Z" fill="white"/>
<path d="M160.779 48.5342H86.2726C85.1194 48.5342 84.1846 49.4699 84.1846 50.6242V99.8353C84.1846 100.99 85.1194 101.925 86.2726 101.925H160.779C161.933 101.925 162.867 100.99 162.867 99.8353V50.6242C162.867 49.4699 161.933 48.5342 160.779 48.5342Z" fill="#D9EBFF"/>
<path d="M167.792 109.343H79.2604C78.5684 109.342 77.905 109.067 77.4157 108.577C76.9264 108.087 76.6511 107.423 76.6504 106.73V43.7297C76.6511 43.037 76.9264 42.373 77.4157 41.8832C77.905 41.3934 78.5684 41.1179 79.2604 41.1172H167.792C168.484 41.1179 169.147 41.3934 169.636 41.8832C170.126 42.373 170.401 43.037 170.402 43.7297V106.73C170.401 107.423 170.126 108.087 169.636 108.577C169.147 109.067 168.484 109.342 167.792 109.343ZM79.2604 42.1622C78.8452 42.1626 78.4471 42.3279 78.1536 42.6218C77.86 42.9157 77.6948 43.3141 77.6944 43.7297V106.73C77.6948 107.146 77.86 107.544 78.1536 107.838C78.4471 108.132 78.8452 108.297 79.2604 108.298H167.792C168.207 108.297 168.605 108.132 168.899 107.838C169.192 107.544 169.357 107.146 169.358 106.73V43.7297C169.357 43.3141 169.192 42.9157 168.899 42.6218C168.605 42.3279 168.207 42.1626 167.792 42.1622H79.2604Z" fill="#4D76B8"/>
<path d="M160.779 48.5342H86.2726C85.7188 48.5342 85.1877 48.7544 84.7961 49.1463C84.4046 49.5383 84.1846 50.0699 84.1846 50.6242V56.3793H162.867V50.6242C162.867 50.0699 162.647 49.5383 162.256 49.1463C161.864 48.7544 161.333 48.5342 160.779 48.5342ZM84.1846 95.256V99.8355C84.1846 100.39 84.4046 100.921 84.7961 101.313C85.1877 101.705 85.7188 101.925 86.2726 101.925H160.779C161.333 101.925 161.864 101.705 162.256 101.313C162.647 100.921 162.867 100.39 162.867 99.8355V95.256H84.1846Z" fill="#A9C0FF"/>
<path d="M161.651 126.134H177.715C176.818 126.134 175.947 125.832 175.243 125.276C174.538 124.721 174.041 123.944 173.831 123.072L168.636 101.498C168.426 100.625 167.928 99.8484 167.224 99.293C166.519 98.7376 165.649 98.4355 164.752 98.4355H163.448C162.845 98.4355 162.25 98.5723 161.707 98.8356C161.164 99.0989 160.687 99.4818 160.313 99.9557C159.939 100.43 159.677 100.982 159.547 101.572C159.417 102.161 159.422 102.773 159.562 103.36L163.89 121.564C164.029 122.152 164.034 122.763 163.904 123.353C163.774 123.942 163.512 124.495 163.138 124.969C162.764 125.443 162.288 125.826 161.745 126.089C161.202 126.352 160.606 126.489 160.003 126.489L161.651 126.134Z" fill="#6299E8"/>
<path d="M162.822 98.3994H178.886H178.923L184.16 121.24C184.295 121.826 184.295 122.434 184.162 123.02C184.029 123.607 183.766 124.155 183.391 124.626C183.017 125.096 182.542 125.476 182.001 125.737C181.46 125.998 180.867 126.133 180.266 126.133H177.715C176.818 126.133 175.947 125.831 175.243 125.276C174.538 124.72 174.041 123.944 173.831 123.071L168.636 101.497C168.426 100.624 167.929 99.8478 167.224 99.2923C166.52 98.7369 165.649 98.4349 164.752 98.4349L162.822 98.3994ZM154.56 118.64L156.181 123.654C156.43 124.474 156.936 125.192 157.625 125.702C158.313 126.213 159.147 126.488 160.003 126.488C160.606 126.488 161.202 126.351 161.745 126.088C162.288 125.825 162.764 125.442 163.138 124.968C163.512 124.494 163.774 123.942 163.904 123.352C164.034 122.762 164.029 122.151 163.89 121.563L163.195 118.64H154.56Z" fill="#4D76B8"/>
<path d="M180.266 126.134C180.867 126.134 181.459 125.998 182.001 125.737C182.542 125.476 183.017 125.096 183.391 124.626C183.765 124.156 184.029 123.607 184.162 123.021C184.295 122.435 184.294 121.826 184.16 121.24L175.477 83.3721C175.343 82.7861 175.342 82.1774 175.475 81.5912C175.608 81.0049 175.872 80.4563 176.246 79.9861C176.62 79.5158 177.096 79.1361 177.637 78.8751C178.178 78.6141 178.771 78.4785 179.371 78.4785H180.928L202.622 83.3721L211.305 121.24C211.439 121.826 211.44 122.435 211.307 123.021C211.174 123.607 210.91 124.156 210.536 124.626C210.162 125.096 209.687 125.476 209.146 125.737C208.605 125.998 208.012 126.134 207.411 126.134H180.266Z" fill="#6299E8"/>
<path d="M206.516 78.4785H208.073C208.939 78.4785 209.783 78.7606 210.475 79.2821C211.167 79.8037 211.672 80.5365 211.912 81.37L213.723 87.6607C213.963 88.4942 214.467 89.2269 215.16 89.7485C215.852 90.2701 216.696 90.5521 217.562 90.5521H190.417C189.55 90.5521 188.707 90.2701 188.015 89.7485C187.322 89.2269 186.818 88.4942 186.578 87.6607L184.767 81.37C184.527 80.5365 184.022 79.8037 183.33 79.2821C182.637 78.7606 181.794 78.4785 180.928 78.4785H206.516Z" fill="#4D76B8"/>
<path d="M190.417 90.5521H190.854C191.458 90.5521 192.054 90.4149 192.598 90.1509C193.142 89.8869 193.618 89.5029 193.992 89.0279C194.366 88.5528 194.628 87.9991 194.757 87.4083C194.886 86.8175 194.88 86.2051 194.738 85.6171L194.08 82.8818H221.225L221.883 85.6171C222.025 86.2051 222.031 86.8175 221.902 87.4083C221.773 87.9991 221.511 88.5528 221.137 89.0279C220.763 89.5029 220.287 89.8869 219.743 90.1509C219.2 90.4149 218.603 90.5521 217.999 90.5521H190.417Z" fill="#92B1EF"/>
<path d="M200.93 96.6348H181.898V97.6798H200.93V96.6348Z" fill="#4D76B8"/>
<path d="M202.237 101.191H183.204V102.236H202.237V101.191Z" fill="#4D76B8"/>
<path d="M203.573 105.789H184.54V106.834H203.573V105.789Z" fill="#4D76B8"/>
<path d="M204.908 110.387H185.876V111.432H204.908V110.387Z" fill="#4D76B8"/>
<path d="M206.244 114.984H187.211V116.029H206.244V114.984Z" fill="#4D76B8"/>
<path d="M207.58 119.583H188.547V120.628H207.58V119.583Z" fill="#4D76B8"/>
<path d="M173.411 105.101H164.017V106.146H173.411V105.101Z" fill="#4D76B8"/>
<path d="M174.056 109.657H164.662V110.702H174.056V109.657Z" fill="#4D76B8"/>
<path d="M174.715 114.255H165.321V115.3H174.715V114.255Z" fill="#4D76B8"/>
<path d="M175.374 118.854H165.98V119.899H175.374V118.854Z" fill="#4D76B8"/>
<path d="M15.2471 126.489L56.5945 126.421C56.9229 126.421 57.2481 126.357 57.5516 126.231C57.8551 126.106 58.1309 125.921 58.3633 125.689C58.5957 125.457 58.7802 125.181 58.9061 124.878C59.032 124.574 59.097 124.249 59.0972 123.92L64.058 96.9231C64.0586 96.2593 63.7957 95.6224 63.3271 95.1526C62.8586 94.6828 62.2227 94.4185 61.5595 94.418L10.6717 104.138C10.5582 104.138 10.4448 104.145 10.3323 104.16C8.78599 104.369 7.94363 106.108 8.55382 107.546L12.7486 123.984C12.7484 124.313 12.8128 124.638 12.9382 124.942C13.0636 125.246 13.2475 125.522 13.4795 125.754C13.7116 125.987 13.9871 126.172 14.2904 126.298C14.5936 126.424 14.9188 126.489 15.2471 126.489Z" fill="#618AC6"/>
<path d="M57.6979 126.488H18.0889V74.9256C18.0889 74.556 18.2355 74.2016 18.4966 73.9403C18.7576 73.679 19.1117 73.5322 19.4809 73.5322H56.3059C56.6751 73.5322 57.0292 73.679 57.2902 73.9403C57.5513 74.2016 57.6979 74.556 57.6979 74.9256V126.488Z" fill="#A9C0FF"/>
<path d="M51.1537 81.5508H37.8936V82.5958H51.1537V81.5508Z" fill="#456BA3"/>
<path d="M51.1537 87.0732H37.8936V88.1182H51.1537V87.0732Z" fill="#456BA3"/>
<path d="M51.1537 92.5947H37.8936V93.6397H51.1537V92.5947Z" fill="#456BA3"/>
<path d="M61.1645 118.372H49.2573V105.963H62.941C63.2348 105.963 63.525 106.029 63.7903 106.155C64.0556 106.282 64.2894 106.466 64.4746 106.694C64.6598 106.923 64.7917 107.189 64.8608 107.475C64.9299 107.761 64.9343 108.059 64.8738 108.347L63.0974 116.802C63.0041 117.246 62.7611 117.644 62.4092 117.93C62.0572 118.216 61.6177 118.372 61.1645 118.372Z" fill="#4D76B8"/>
<path d="M13.9066 126.452L56.6173 126.489C56.9457 126.489 57.2709 126.424 57.5744 126.299C57.8779 126.173 58.1537 125.989 58.3861 125.757C58.6185 125.525 58.8029 125.249 58.9289 124.945C59.0548 124.642 59.1197 124.316 59.12 123.988L52.2322 95.6344C52.2325 95.3057 52.1681 94.9802 52.0427 94.6764C51.9173 94.3726 51.7333 94.0965 51.5013 93.8639C51.2693 93.6312 50.9938 93.4466 50.6905 93.3206C50.3872 93.1945 50.0621 93.1295 49.7337 93.1292L35.5296 93.1172C35.1281 93.1168 34.7325 93.2133 34.3761 93.3983C34.0197 93.5834 33.713 93.8516 33.4821 94.1803L31.0942 100.39C30.8632 100.719 30.5566 100.987 30.2002 101.172C29.8438 101.357 29.4481 101.454 29.0466 101.453L7.01593 101.436C6.68754 101.436 6.36232 101.501 6.05882 101.626C5.75532 101.752 5.4795 101.936 5.2471 102.168C5.0147 102.4 4.83027 102.676 4.70434 102.98C4.57842 103.283 4.51346 103.609 4.51318 103.937L11.4081 123.947C11.4078 124.276 11.4722 124.601 11.5976 124.905C11.723 125.209 11.907 125.485 12.139 125.718C12.371 125.95 12.6465 126.135 12.9498 126.261C13.2531 126.387 13.5782 126.452 13.9066 126.452Z" fill="#6194E0"/>
<path d="M27.0208 113.828L18.7976 106.872C18.7257 106.811 18.638 106.772 18.5446 106.759C18.4513 106.747 18.3564 106.761 18.271 106.801C18.1856 106.84 18.1133 106.904 18.0627 106.983C18.012 107.063 17.9851 107.155 17.9851 107.249V108.151C17.9851 108.216 17.9723 108.281 17.9475 108.341C17.9227 108.401 17.8863 108.455 17.8405 108.501C17.7946 108.547 17.7402 108.583 17.6803 108.608C17.6204 108.633 17.5562 108.646 17.4913 108.646H6.11933L0 107.305V121.055H17.4913C17.5562 121.055 17.6204 121.068 17.6803 121.093C17.7402 121.117 17.7946 121.154 17.8405 121.2C17.8863 121.246 17.9227 121.3 17.9475 121.36C17.9723 121.42 17.9851 121.484 17.9851 121.549V122.22C17.9851 122.317 18.0137 122.412 18.0674 122.493C18.1211 122.574 18.1974 122.638 18.2869 122.675C18.3764 122.713 18.475 122.724 18.5704 122.706C18.6658 122.688 18.7538 122.642 18.8234 122.574L27.0466 114.56C27.0959 114.512 27.1347 114.454 27.1603 114.39C27.186 114.326 27.198 114.257 27.1956 114.188C27.1931 114.119 27.1763 114.052 27.1463 113.99C27.1162 113.928 27.0734 113.873 27.0208 113.828Z" fill="#4D76B8"/>
<path d="M6.11933 108.645H1.33983C0.984486 108.645 0.643695 108.504 0.392429 108.252C0.141164 108.001 9.22952e-07 107.66 0 107.304C9.22949e-07 106.948 0.141164 106.607 0.392429 106.356C0.643695 106.104 0.984485 105.963 1.33983 105.963H5.21119L6.11933 108.645Z" fill="#4469A0"/>
<path d="M31.4688 82.0732H22.7528C22.5606 82.0732 22.4048 82.2292 22.4048 82.4216V92.7688C22.4048 92.9612 22.5606 93.1172 22.7528 93.1172H31.4688C31.661 93.1172 31.8168 92.9612 31.8168 92.7688V82.4216C31.8168 82.2292 31.661 82.0732 31.4688 82.0732Z" fill="#D9EBFF"/>
<path d="M221.996 126.488H0V129.623H221.996V126.488Z" fill="#456BA3"/>
<g opacity="0.28">
<path d="M91.3101 57.973H43.1896C43.0542 57.973 42.9244 57.9192 42.8287 57.8234C42.733 57.7275 42.6792 57.5976 42.6792 57.4621V28.9708C42.6792 28.8353 42.733 28.7054 42.8287 28.6096C42.9244 28.5138 43.0542 28.46 43.1896 28.46H71.9234C71.9986 28.46 72.0729 28.4766 72.141 28.5087C72.2091 28.5408 72.2692 28.5876 72.3171 28.6457L78.2964 35.9003C78.3443 35.9584 78.4044 36.0052 78.4725 36.0373C78.5405 36.0694 78.6148 36.0861 78.6901 36.0861H91.3101C91.3771 36.0861 91.4435 36.0993 91.5054 36.125C91.5674 36.1506 91.6236 36.1883 91.671 36.2357C91.7184 36.2831 91.756 36.3394 91.7816 36.4014C91.8073 36.4634 91.8205 36.5298 91.8205 36.5969V57.4621C91.8205 57.5976 91.7667 57.7275 91.671 57.8234C91.5753 57.9192 91.4455 57.973 91.3101 57.973Z" fill="#6299E8"/>
</g>
<path d="M86.6436 52.1663H38.5231C38.3877 52.1663 38.2579 52.1125 38.1622 52.0167C38.0665 51.9209 38.0127 51.791 38.0127 51.6555V23.1642C38.0127 23.0971 38.0259 23.0307 38.0515 22.9687C38.0772 22.9067 38.1148 22.8504 38.1622 22.8029C38.2096 22.7555 38.2658 22.7179 38.3278 22.6922C38.3897 22.6665 38.456 22.6533 38.5231 22.6533H67.2569C67.3321 22.6533 67.4064 22.67 67.4745 22.7021C67.5426 22.7342 67.6027 22.781 67.6506 22.8391L73.6299 30.0937C73.6778 30.1518 73.7379 30.1985 73.806 30.2307C73.874 30.2628 73.9483 30.2794 74.0236 30.2794H86.6436C86.779 30.2794 86.9088 30.3332 87.0045 30.429C87.1002 30.5249 87.154 30.6548 87.154 30.7903V51.6555C87.154 51.791 87.1002 51.9209 87.0045 52.0167C86.9088 52.1125 86.779 52.1663 86.6436 52.1663Z" fill="white"/>
<path d="M82.5437 45.1309H69.9646C69.5802 45.1309 69.2686 45.4428 69.2686 45.8275V47.866C69.2686 48.2507 69.5802 48.5626 69.9646 48.5626H82.5437C82.9281 48.5626 83.2397 48.2507 83.2397 47.866V45.8275C83.2397 45.4428 82.9281 45.1309 82.5437 45.1309Z" fill="#A9C0FF"/>
<path d="M82.5437 39.125H69.9646C69.5802 39.125 69.2686 39.4369 69.2686 39.8217V41.8601C69.2686 42.2449 69.5802 42.5568 69.9646 42.5568H82.5437C82.9281 42.5568 83.2397 42.2449 83.2397 41.8601V39.8217C83.2397 39.4369 82.9281 39.125 82.5437 39.125Z" fill="#A9C0FF"/>
<path d="M54.439 47.8187H44.4654C44.3301 47.8187 44.2003 47.7649 44.1046 47.6691C44.0088 47.5733 43.9551 47.4434 43.9551 47.3079V39.6358C43.9551 39.5004 44.0088 39.3704 44.1046 39.2746C44.2003 39.1788 44.3301 39.125 44.4654 39.125H57.3871C57.5225 39.125 57.6523 39.1788 57.748 39.2746C57.8437 39.3704 57.8975 39.5004 57.8975 39.6358V45.0498C57.8975 45.1283 57.8794 45.2057 57.8447 45.276C57.81 45.3464 57.7595 45.4078 57.6973 45.4555L54.7492 47.7136C54.6601 47.7818 54.5511 47.8187 54.439 47.8187Z" fill="#A9C0FF"/>
<path d="M54.6874 27.9727H44.6511C44.2667 27.9727 43.9551 28.2846 43.9551 28.6693V30.7078C43.9551 31.0925 44.2667 31.4044 44.6511 31.4044H54.6874C55.0718 31.4044 55.3834 31.0925 55.3834 30.7078V28.6693C55.3834 28.2846 55.0718 27.9727 54.6874 27.9727Z" fill="#A9C0FF"/>
<path d="M86.6437 52.688H38.5232C38.2494 52.6877 37.987 52.5787 37.7935 52.3849C37.5999 52.1912 37.4911 51.9285 37.4907 51.6546V23.1633C37.4911 22.8893 37.5999 22.6267 37.7935 22.4329C37.987 22.2392 38.2494 22.1302 38.5232 22.1299H67.257C67.4091 22.1296 67.5594 22.1632 67.6971 22.2282C67.8347 22.2931 67.9562 22.3878 68.0529 22.5054L74.0328 29.7602L86.6437 29.7561C86.9174 29.7565 87.1798 29.8655 87.3734 30.0592C87.5669 30.2529 87.6758 30.5156 87.6761 30.7896V51.6545C87.6758 51.9285 87.5669 52.1912 87.3734 52.3849C87.1798 52.5787 86.9174 52.6877 86.6437 52.688ZM67.2478 23.1705L38.5232 23.1749L38.5347 51.6546L86.6321 51.643V30.7896L74.0236 30.8012C73.8713 30.8014 73.7208 30.7678 73.5831 30.7028C73.4453 30.6378 73.3237 30.543 73.227 30.4253L67.2478 23.1705Z" fill="#4D76B8"/>
<path d="M174.14 48.8311L163.505 18.5784C163.334 18.0936 163.361 17.5604 163.582 17.096C163.803 16.6315 164.2 16.2741 164.684 16.1021L184.382 9.10961C184.622 9.02447 184.876 8.98745 185.13 9.00066C185.384 9.01387 185.633 9.07705 185.863 9.1866C186.092 9.29614 186.298 9.44991 186.469 9.63911C186.639 9.82832 186.771 10.0493 186.856 10.2893L197.426 44.3511C197.456 44.434 197.48 44.5189 197.498 44.605C197.745 45.7897 196.693 46.855 195.487 46.7802L176.614 50.0108C176.129 50.1827 175.596 50.1551 175.133 49.9338C174.669 49.7126 174.311 49.3159 174.14 48.8311Z" fill="#779DD8"/>
<path d="M172.89 45.9749L161.827 14.7523C161.655 14.2675 161.683 13.7342 161.904 13.2698C162.125 12.8054 162.521 12.4479 163.006 12.276L184.775 4.54808C185.259 4.37614 185.792 4.40383 186.256 4.62507C186.72 4.84631 187.077 5.24297 187.249 5.72779L190.928 16.1113C191.032 16.4048 191.064 16.7191 191.021 17.0275C190.978 17.3359 190.861 17.6295 190.681 17.8833L187.276 22.6784C187.096 22.9322 186.979 23.2257 186.937 23.5342C186.894 23.8426 186.925 24.1568 187.029 24.4503L192.224 39.1114C192.396 39.5962 192.368 40.1295 192.147 40.5939C191.926 41.0583 191.53 41.4158 191.045 41.5878L175.364 47.1546C175.124 47.2398 174.87 47.2768 174.616 47.2636C174.362 47.2504 174.113 47.1872 173.883 47.0776C173.653 46.9681 173.447 46.8143 173.277 46.6251C173.106 46.4359 172.975 46.215 172.89 45.9749Z" fill="#92B1EF"/>
<path d="M182.996 8.94136L166.589 15.0889L167.077 16.3938L183.484 10.2463L182.996 8.94136Z" fill="#4D76B8"/>
<path d="M184.648 13.0877L168.241 19.2354L168.729 20.5403L185.136 14.3926L184.648 13.0877Z" fill="#4D76B8"/>
<path d="M186.313 17.3964L169.906 23.5439L170.394 24.8488L186.801 18.7013L186.313 17.3964Z" fill="#4D76B8"/>
<path d="M108.576 72.7855H90.4235C90.3724 72.7855 90.3235 72.7652 90.2873 72.7291C90.2512 72.6929 90.231 72.6439 90.231 72.5928V61.845C90.231 61.7939 90.2512 61.7449 90.2873 61.7088C90.3235 61.6726 90.3724 61.6523 90.4235 61.6523H101.263C101.291 61.6523 101.319 61.6586 101.345 61.6707C101.37 61.6828 101.393 61.7005 101.411 61.7224L103.667 64.4591C103.685 64.481 103.708 64.4986 103.733 64.5107C103.759 64.5228 103.787 64.5291 103.815 64.5291H108.576C108.627 64.5291 108.676 64.5494 108.712 64.5856C108.748 64.6217 108.768 64.6707 108.768 64.7218V72.5928C108.768 72.6439 108.748 72.6929 108.712 72.7291C108.676 72.7652 108.627 72.7855 108.576 72.7855ZM132.602 72.7855H114.45C114.399 72.7855 114.35 72.7652 114.314 72.7291C114.278 72.6929 114.257 72.6439 114.257 72.5928V61.845C114.257 61.7939 114.278 61.7449 114.314 61.7088C114.35 61.6726 114.399 61.6523 114.45 61.6523H125.289C125.318 61.6523 125.346 61.6586 125.371 61.6707C125.397 61.6828 125.42 61.7005 125.438 61.7224L127.693 64.4591C127.711 64.481 127.734 64.4986 127.76 64.5107C127.785 64.5228 127.813 64.5291 127.842 64.5291H132.602C132.653 64.5291 132.702 64.5494 132.738 64.5856C132.775 64.6217 132.795 64.6707 132.795 64.7218V72.5928C132.795 72.6439 132.775 72.6929 132.738 72.7291C132.702 72.7652 132.653 72.7855 132.602 72.7855ZM156.629 72.7855H138.476C138.425 72.7855 138.376 72.7652 138.34 72.7291C138.304 72.6929 138.284 72.6439 138.284 72.5928V61.845C138.284 61.7939 138.304 61.7449 138.34 61.7088C138.376 61.6726 138.425 61.6523 138.476 61.6523H149.316C149.344 61.6523 149.372 61.6586 149.398 61.6707C149.423 61.6828 149.446 61.7005 149.464 61.7224L151.72 64.4591C151.738 64.481 151.76 64.4986 151.786 64.5107C151.812 64.5228 151.84 64.5291 151.868 64.5291H156.629C156.68 64.5291 156.729 64.5494 156.765 64.5856C156.801 64.6217 156.821 64.6707 156.821 64.7218V72.5928C156.821 72.6439 156.801 72.6929 156.765 72.7291C156.729 72.7652 156.68 72.7855 156.629 72.7855Z" fill="#A9C0FF"/>
<path d="M108.072 81.7031H90.927C90.6041 81.7027 90.2945 81.5742 90.0662 81.3456C89.8378 81.1171 89.7094 80.8072 89.709 80.484V76.5268C89.7094 76.2036 89.8378 75.8937 90.0662 75.6651C90.2945 75.4366 90.6041 75.308 90.927 75.3076H108.072C108.395 75.308 108.705 75.4366 108.933 75.6651C109.162 75.8937 109.29 76.2036 109.29 76.5268V80.484C109.29 80.8072 109.162 81.1171 108.933 81.3456C108.705 81.5742 108.395 81.7027 108.072 81.7031ZM90.927 76.3526C90.8809 76.3527 90.8367 76.3711 90.804 76.4037C90.7714 76.4364 90.7531 76.4806 90.753 76.5268V80.484C90.7531 80.5301 90.7714 80.5744 90.804 80.607C90.8367 80.6397 90.8809 80.658 90.927 80.6581H108.072C108.119 80.658 108.163 80.6397 108.195 80.607C108.228 80.5744 108.246 80.5301 108.246 80.484V76.5268C108.246 76.4806 108.228 76.4364 108.195 76.4037C108.163 76.3711 108.119 76.3527 108.072 76.3526H90.927Z" fill="#456BA3"/>
<path d="M156.125 75.8301H138.98C138.595 75.8301 138.284 76.142 138.284 76.5267V80.4838C138.284 80.8686 138.595 81.1805 138.98 81.1805H156.125C156.51 81.1805 156.821 80.8686 156.821 80.4838V76.5267C156.821 76.142 156.51 75.8301 156.125 75.8301Z" fill="#A9C0FF"/>
<path d="M156.125 84.2246H138.98C138.595 84.2246 138.284 84.5365 138.284 84.9213V88.8783C138.284 89.2631 138.595 89.575 138.98 89.575H156.125C156.51 89.575 156.821 89.2631 156.821 88.8783V84.9213C156.821 84.5365 156.51 84.2246 156.125 84.2246Z" fill="white"/>
</svg>
